<?xml version="1.0" standalone="no"?>
<!DOCTYPE svg PUBLIC "-//W3C//DTD SVG 20010904//EN"
 "http://www.w3.org/TR/2001/REC-SVG-20010904/DTD/svg10.dtd">
<svg version="1.0" xmlns="http://www.w3.org/2000/svg"
 width="1352.000000pt" height="761.000000pt" viewBox="0 0 1352.000000 761.000000"
 preserveAspectRatio="xMidYMid meet">

<g transform="translate(0.000000,761.000000) scale(0.100000,-0.100000)"
fill="#000000" stroke="none">
<path d="M4571 6913 c1 -32 4 -48 6 -35 3 13 12 22 23 22 11 0 23 8 29 17 13
25 -5 53 -34 53 -24 0 -25 -3 -24 -57z m47 25 c-5 -34 -38 -37 -38 -4 0 20 5
26 21 26 15 0 20 -5 17 -22z"/>
<path d="M4950 6921 c0 -42 3 -51 21 -56 30 -10 53 16 45 49 -4 15 -13 26 -23
26 -15 0 -15 -1 1 -13 21 -16 14 -57 -10 -57 -10 0 -14 13 -14 50 0 28 -4 50
-10 50 -5 0 -10 -22 -10 -49z"/>
<path d="M5161 6913 c1 -32 4 -48 6 -35 2 12 7 22 11 22 3 0 17 -10 31 -22 15
-13 20 -15 12 -5 -11 14 -12 23 -2 43 14 32 0 54 -35 54 -23 0 -24 -3 -23 -57z
m47 25 c-5 -34 -38 -37 -38 -4 0 20 5 26 21 26 15 0 20 -5 17 -22z"/>
<path d="M5339 6948 c-4 -49 12 -89 35 -87 7 0 6 2 -1 6 -16 6 -17 63 -2 63 6
0 4 7 -5 15 -18 18 -26 19 -27 3z"/>
<path d="M4663 6900 c0 -25 2 -35 4 -22 2 12 2 32 0 45 -2 12 -4 2 -4 -23z"/>
<path d="M4685 6930 c-3 -5 -1 -10 4 -10 6 0 11 5 11 10 0 6 -2 10 -4 10 -3 0
-8 -4 -11 -10z"/>
<path d="M4733 6905 c0 -22 2 -30 4 -17 2 12 2 30 0 40 -3 9 -5 -1 -4 -23z"/>
<path d="M4772 6928 c-24 -24 -6 -69 28 -67 9 0 6 4 -7 9 -14 6 -23 18 -23 30
0 12 9 24 23 30 13 5 16 9 7 9 -9 1 -21 -4 -28 -11z"/>
<path d="M4840 6925 c-19 -23 3 -65 32 -64 23 2 23 2 1 6 -31 6 -39 33 -9 33
29 0 39 10 25 27 -15 17 -34 17 -49 -2z m45 -5 c4 -6 -5 -10 -20 -10 -15 0
-24 4 -20 10 3 6 12 10 20 10 8 0 17 -4 20 -10z"/>
<path d="M5047 6903 c11 -28 12 -42 4 -55 -7 -12 -8 -18 -1 -18 6 0 15 12 20
26 12 32 12 37 1 30 -5 -4 -12 7 -16 24 -4 16 -11 30 -15 30 -5 0 -2 -17 7
-37z"/>
<path d="M5086 6925 c-9 -26 -7 -32 5 -12 6 10 9 21 6 23 -2 3 -7 -2 -11 -11z"/>
<path d="M5278 6933 c12 -2 22 -8 22 -13 0 -5 -10 -10 -22 -12 -26 -3 -33 -42
-8 -44 9 0 10 1 3 3 -20 7 -15 33 6 33 12 0 21 -9 24 -22 3 -13 4 -5 4 17 -2
35 -5 40 -27 42 -22 1 -22 1 -2 -4z"/>
<path d="M5413 6900 c0 -25 2 -35 4 -22 2 12 2 32 0 45 -2 12 -4 2 -4 -23z"/>
<path d="M5450 6901 c0 -23 2 -41 4 -41 8 0 12 71 4 76 -4 3 -8 -13 -8 -35z"/>
<path d="M5487 6933 c6 -4 13 -24 16 -43 4 -34 4 -33 3 4 -1 26 -6 41 -16 43
-10 3 -11 2 -3 -4z"/>
<path d="M5540 6920 c-15 -28 5 -64 31 -57 13 3 19 1 16 -6 -2 -6 -14 -14 -28
-18 -21 -6 -21 -7 -3 -8 31 -2 44 19 43 69 -2 43 -2 44 -8 10 -8 -46 -41 -56
-41 -11 0 20 6 31 18 34 16 4 16 5 0 6 -10 0 -22 -8 -28 -19z"/>
<path d="M2240 6779 c0 -112 -9 -103 106 -113 299 -26 574 -271 666 -593 34
-117 31 -305 -6 -426 -31 -104 -63 -170 -121 -252 -175 -247 -494 -376 -789
-321 -49 10 -116 28 -148 41 l-59 24 -40 -81 c-21 -45 -39 -87 -39 -94 0 -15
117 -59 211 -78 222 -45 441 -21 637 69 521 241 733 850 477 1370 -154 313
-465 517 -837 549 l-58 5 0 -100z"/>
<path d="M9008 6626 c-26 -13 -36 -59 -17 -82 19 -23 66 -17 84 10 31 48 -15
98 -67 72z"/>
<path d="M771 6533 c1 -22 2 -23 6 -8 3 11 10 23 17 27 7 5 5 8 -6 8 -13 0
-18 -7 -17 -27z"/>
<path d="M819 6551 c11 -7 10 -10 -5 -14 -16 -4 -16 -5 4 -6 13 -1 22 5 22 14
0 8 -8 15 -17 15 -15 0 -15 -2 -4 -9z"/>
<path d="M912 6535 c0 -16 2 -22 5 -12 2 9 2 23 0 30 -3 6 -5 -1 -5 -18z"/>
<path d="M940 6545 c0 -8 7 -15 15 -15 8 0 15 7 15 15 0 8 -7 15 -15 15 -8 0
-15 -7 -15 -15z"/>
<path d="M1074 6532 c3 -5 0 -13 -6 -15 -8 -3 -6 -6 5 -6 19 -1 23 14 5 25 -6
4 -8 3 -4 -4z"/>
<path d="M818 6513 c7 -3 16 -2 19 1 4 3 -2 6 -13 5 -11 0 -14 -3 -6 -6z"/>
<path d="M7163 6470 c-28 -12 -43 -40 -43 -84 0 -65 79 -99 132 -56 32 24 39
59 22 99 -18 43 -64 60 -111 41z"/>
<path d="M6926 6399 c-52 -41 -24 -119 43 -119 46 0 71 24 71 68 0 33 -38 72
-70 72 -10 0 -29 -9 -44 -21z"/>
<path d="M246 6397 c3 -10 9 -15 12 -12 3 3 0 11 -7 18 -10 9 -11 8 -5 -6z"/>
<path d="M445 6370 c0 -26 4 -40 13 -40 7 0 10 5 7 11 -4 6 1 17 11 25 17 12
17 13 2 8 -13 -4 -18 -1 -18 11 0 11 5 15 15 11 8 -3 15 -1 15 4 0 6 -10 10
-22 10 -20 0 -23 -5 -23 -40z"/>
<path d="M8075 6380 c-40 -45 20 -109 71 -75 29 19 31 55 6 78 -25 23 -55 21
-77 -3z"/>
<path d="M8842 6388 c-21 -21 -14 -66 13 -84 23 -15 27 -15 50 0 17 11 25 26
25 44 0 35 -16 52 -50 52 -14 0 -31 -5 -38 -12z"/>
<path d="M342 6368 c2 -6 11 -13 19 -16 12 -3 12 -2 0 6 -11 8 -10 11 5 15 16
4 15 5 -4 6 -14 1 -22 -4 -20 -11z"/>
<path d="M500 6355 c0 -14 4 -25 10 -25 5 0 7 7 3 16 -3 9 0 20 8 25 11 7 11
9 -3 9 -13 0 -18 -8 -18 -25z"/>
<path d="M578 6373 c7 -3 16 -2 19 1 4 3 -2 6 -13 5 -11 0 -14 -3 -6 -6z"/>
<path d="M629 6371 c11 -7 10 -10 -5 -14 -16 -4 -16 -5 4 -6 13 -1 22 5 22 14
0 8 -8 15 -17 15 -15 0 -15 -2 -4 -9z"/>
<path d="M5229 6366 c-44 -26 -64 -67 -60 -130 1 -14 6 -17 22 -13 39 10 81
-5 120 -44 l38 -38 25 20 c55 43 56 138 1 189 -31 29 -108 37 -146 16z"/>
<path d="M244 6359 c-24 -8 -41 -29 -25 -29 6 0 11 5 11 10 0 14 28 12 33 -2
2 -7 7 -11 9 -8 3 3 3 12 -1 21 -4 12 -12 14 -27 8z"/>
<path d="M549 6350 c-7 -5 -10 -13 -5 -17 5 -4 11 -2 13 5 4 10 8 10 19 1 8
-7 16 -10 19 -8 9 10 -32 27 -46 19z"/>
<path d="M348 6333 c6 -2 18 -2 25 0 6 3 1 5 -13 5 -14 0 -19 -2 -12 -5z"/>
<path d="M628 6333 c7 -3 16 -2 19 1 4 3 -2 6 -13 5 -11 0 -14 -3 -6 -6z"/>
<path d="M5463 6325 c-31 -13 -33 -17 -33 -62 0 -30 -7 -60 -20 -81 -20 -33
-20 -33 -1 -60 11 -15 30 -34 44 -41 22 -12 28 -11 55 9 19 14 51 25 81 28 47
4 51 7 61 38 39 118 -73 219 -187 169z"/>
<path d="M348 6313 c7 -3 16 -2 19 1 4 3 -2 6 -13 5 -11 0 -14 -3 -6 -6z"/>
<path d="M6525 6215 c-36 -35 -35 -97 1 -130 60 -56 154 -15 154 67 0 54 -35
88 -90 88 -30 0 -47 -6 -65 -25z"/>
<path d="M651 6191 c-1 -29 1 -32 14 -21 13 11 19 9 34 -9 10 -11 24 -21 30
-21 7 0 -1 12 -18 26 -17 14 -35 23 -40 20 -5 -4 -12 4 -14 16 -3 16 -5 13 -6
-11z"/>
<path d="M811 6183 c0 -25 4 -43 10 -43 5 0 7 5 4 10 -3 6 -1 10 4 10 6 0 11
-4 11 -10 0 -5 5 -10 11 -10 8 0 8 4 -1 15 -6 8 -9 19 -5 24 3 6 0 8 -9 5 -9
-4 -16 2 -19 18 -2 13 -5 5 -6 -19z"/>
<path d="M5173 6200 c-22 -9 -22 -9 8 -40 25 -24 30 -36 25 -58 -10 -40 -44
-65 -79 -58 -28 6 -29 5 -15 -17 22 -34 83 -60 122 -53 135 25 131 213 -4 231
-19 3 -45 0 -57 -5z"/>
<path d="M720 6183 c8 -3 23 -14 34 -25 11 -10 24 -18 29 -18 5 0 -5 11 -21
25 -17 14 -36 25 -43 24 -11 0 -11 -2 1 -6z"/>
<path d="M770 6183 c8 -3 19 -11 23 -17 6 -7 7 -6 4 4 -2 8 -12 16 -23 17 -13
2 -15 1 -4 -4z"/>
<path d="M879 6162 c9 -7 10 -11 2 -15 -7 -4 -8 -5 0 -4 15 3 13 21 -3 25 -10
3 -10 2 1 -6z"/>
<path d="M5111 6154 c-23 -17 -28 -63 -9 -82 7 -7 24 -12 38 -12 33 0 50 17
50 51 0 43 -44 67 -79 43z"/>
<path d="M7867 6162 c-10 -2 -22 -15 -28 -29 -20 -53 45 -97 85 -57 40 40 1
99 -57 86z"/>
<path d="M8933 6159 c-31 -11 -40 -54 -18 -79 34 -38 95 -16 95 34 0 37 -39
59 -77 45z"/>
<path d="M11132 6148 c-7 -7 -12 -24 -12 -38 0 -33 17 -50 50 -50 33 0 50 17
50 50 0 33 -17 50 -50 50 -14 0 -31 -5 -38 -12z"/>
<path d="M6116 6121 c64 -39 93 -117 63 -173 -15 -28 -6 -31 24 -8 53 42 53
138 0 180 -17 13 -40 20 -72 20 l-46 0 31 -19z"/>
<path d="M5976 6090 c-62 -55 -57 -130 11 -179 59 -43 102 -42 150 3 34 30 37
38 37 86 0 48 -3 56 -37 86 -50 47 -110 48 -161 4z"/>
<path d="M7030 6102 c-67 -22 -68 -116 -1 -137 51 -16 103 41 85 92 -9 28 -58
54 -84 45z"/>
<path d="M6798 6062 c-23 -5 -23 -6 8 -37 22 -22 25 -32 20 -65 -5 -35 -4 -38
14 -33 11 3 27 15 35 26 40 56 -8 123 -77 109z"/>
<path d="M1518 6023 c7 -2 12 -22 12 -44 0 -21 4 -39 9 -39 5 0 7 18 4 39 -4
32 -2 40 13 44 11 3 3 5 -16 5 -19 0 -29 -2 -22 -5z"/>
<path d="M1749 6028 c-5 -19 -2 -88 4 -88 4 0 7 20 7 45 0 25 -2 45 -5 45 -3
0 -5 -1 -6 -2z"/>
<path d="M1815 5985 c0 -27 5 -45 12 -45 6 0 9 9 6 20 -3 11 -1 20 3 20 5 0
15 -9 22 -20 7 -11 18 -20 25 -20 6 0 4 5 -6 11 -14 8 -16 18 -11 45 6 32 5
34 -22 34 -28 0 -29 -2 -29 -45z m45 20 c0 -8 -7 -15 -15 -15 -8 0 -15 7 -15
15 0 8 7 15 15 15 8 0 15 -7 15 -15z"/>
<path d="M1648 6005 c-6 -7 2 -54 11 -59 7 -5 7 52 -1 59 -2 3 -7 3 -10 0z"/>
<path d="M1584 5986 c-9 -24 4 -48 23 -44 12 2 18 12 18 28 0 29 -32 41 -41
16z m36 -16 c0 -11 -7 -20 -15 -20 -8 0 -15 9 -15 20 0 11 7 20 15 20 8 0 15
-9 15 -20z"/>
<path d="M1699 5991 c11 -7 10 -11 -4 -19 -21 -11 -12 -32 14 -32 14 0 17 6
13 30 -3 19 -10 30 -21 30 -13 0 -13 -2 -2 -9z m11 -31 c0 -5 -5 -10 -11 -10
-5 0 -7 5 -4 10 3 6 8 10 11 10 2 0 4 -4 4 -10z"/>
<path d="M1905 5990 c-10 -16 5 -50 23 -50 14 0 13 2 -3 13 -17 13 -17 14 5
20 12 3 19 10 15 16 -8 14 -32 14 -40 1z"/>
<path d="M2030 5972 c0 -18 5 -32 10 -32 6 0 8 11 4 28 -10 39 -14 40 -14 4z"/>
<path d="M2070 5985 c-11 -13 -9 -15 15 -15 16 0 25 5 23 12 -7 19 -24 20 -38
3z"/>
<path d="M2132 5975 c6 -14 13 -24 14 -22 6 6 -9 47 -17 47 -5 0 -3 -11 3 -25z"/>
<path d="M2170 5975 c0 -5 5 -17 10 -25 5 -8 10 -10 10 -5 0 6 -5 17 -10 25
-5 8 -10 11 -10 5z"/>
<path d="M2241 5963 c13 -15 12 -16 -6 -9 -15 5 -17 4 -8 -5 11 -11 33 -5 33
11 0 4 -7 11 -16 14 -15 6 -15 4 -3 -11z"/>
<path d="M2077 5949 c7 -7 15 -10 18 -7 3 3 -2 9 -12 12 -14 6 -15 5 -6 -5z"/>
<path d="M1548 5853 c7 -2 12 -22 12 -44 0 -21 4 -39 9 -39 5 0 7 18 4 39 -4
32 -2 40 13 44 11 3 3 5 -16 5 -19 0 -29 -2 -22 -5z"/>
<path d="M1779 5858 c-5 -19 -2 -88 4 -88 4 0 7 20 7 45 0 25 -2 45 -5 45 -3
0 -5 -1 -6 -2z"/>
<path d="M1875 5850 c-3 -5 -1 -10 4 -10 6 0 11 5 11 10 0 6 -2 10 -4 10 -3 0
-8 -4 -11 -10z"/>
<path d="M2130 5816 c0 -26 5 -46 11 -46 6 0 8 8 5 18 -4 12 1 20 17 27 31 14
28 39 -5 43 -27 3 -28 2 -28 -42z m40 18 c0 -9 -5 -14 -12 -12 -18 6 -21 28
-4 28 9 0 16 -7 16 -16z"/>
<path d="M1678 5835 c-6 -7 3 -65 11 -65 7 0 7 58 -1 65 -2 3 -7 3 -10 0z"/>
<path d="M1614 5816 c-9 -24 4 -48 23 -44 12 2 18 12 18 28 0 29 -32 41 -41
16z m36 -16 c0 -11 -7 -20 -15 -20 -8 0 -15 9 -15 20 0 11 7 20 15 20 8 0 15
-9 15 -20z"/>
<path d="M1729 5821 c11 -7 10 -11 -4 -19 -21 -11 -12 -32 14 -32 14 0 17 6
13 30 -3 19 -10 30 -21 30 -13 0 -13 -2 -2 -9z m11 -31 c0 -5 -5 -10 -11 -10
-5 0 -7 5 -4 10 3 6 8 10 11 10 2 0 4 -4 4 -10z"/>
<path d="M1890 5819 c0 -6 -7 -9 -15 -5 -8 3 -15 1 -15 -4 0 -6 9 -10 20 -10
11 0 20 -7 20 -15 0 -8 4 -15 9 -15 6 0 6 12 0 30 -11 31 -19 39 -19 19z"/>
<path d="M2002 5800 c1 -24 5 -30 22 -29 21 0 21 1 1 9 -11 5 -15 9 -8 9 7 1
17 10 23 21 9 17 8 20 -14 20 -21 0 -25 -5 -24 -30z m28 10 c0 -5 -4 -10 -10
-10 -5 0 -10 5 -10 10 0 6 5 10 10 10 6 0 10 -4 10 -10z"/>
<path d="M2203 5800 c0 -16 4 -30 8 -30 3 0 9 14 11 30 3 19 0 30 -7 30 -6 0
-12 -13 -12 -30z"/>
<path d="M2250 5802 c0 -18 5 -32 10 -32 6 0 8 11 4 28 -10 39 -14 40 -14 4z"/>
<path d="M2300 5826 c0 -2 7 -7 16 -10 8 -3 12 -2 9 4 -6 10 -25 14 -25 6z"/>
<path d="M2345 5820 c-10 -16 5 -50 23 -50 14 0 13 2 -3 13 -17 13 -17 14 5
20 12 3 19 10 15 16 -8 14 -32 14 -40 1z"/>
<path d="M2280 5801 c0 -10 29 -36 34 -30 1 2 -6 12 -16 22 -10 9 -18 13 -18
8z"/>
<path d="M1845 5780 c-3 -5 -1 -10 4 -10 6 0 11 5 11 10 0 6 -2 10 -4 10 -3 0
-8 -4 -11 -10z"/>
<path d="M1998 5748 c6 -6 18 -8 28 -6 14 3 12 5 -9 10 -19 3 -25 2 -19 -4z"/>
<path d="M1753 5683 c15 -4 18 -12 15 -44 -2 -23 1 -39 7 -39 6 0 9 16 7 39
-3 32 0 40 15 44 10 3 0 5 -22 5 -22 0 -32 -2 -22 -5z"/>
<path d="M1981 5648 c-1 -27 3 -48 7 -48 4 0 6 17 4 38 -5 58 -10 62 -11 10z"/>
<path d="M2051 5685 c-6 -19 1 -70 10 -80 13 -13 43 20 36 39 -4 9 -12 16 -19
16 -10 0 -9 -3 1 -9 8 -5 11 -16 8 -25 -11 -29 -26 -16 -30 27 -2 23 -5 38 -6
32z"/>
<path d="M2250 5690 c-5 -17 -4 -90 3 -90 4 0 7 5 7 12 0 9 3 9 12 0 7 -7 16
-12 22 -12 5 0 2 6 -8 13 -10 7 -21 29 -26 47 -4 19 -9 33 -10 30z"/>
<path d="M1880 5641 c0 -17 4 -32 8 -35 4 -2 8 11 8 30 0 19 -4 34 -8 34 -4 0
-8 -13 -8 -29z"/>
<path d="M1813 5644 c-8 -21 23 -52 38 -37 8 8 6 11 -7 10 -11 -1 -20 6 -22
17 -3 15 0 18 17 13 12 -3 19 -1 15 4 -9 15 -34 10 -41 -7z"/>
<path d="M1930 5652 c17 -8 26 -42 11 -42 -5 0 -12 6 -14 13 -3 7 -6 5 -6 -5
-1 -12 6 -18 20 -18 16 0 20 5 17 27 -2 19 -9 29 -23 30 -15 2 -16 1 -5 -5z"/>
<path d="M2113 5644 c-8 -21 23 -52 38 -37 8 8 6 11 -7 10 -11 -1 -20 6 -22
17 -3 15 0 18 17 13 12 -3 19 -1 15 4 -9 15 -34 10 -41 -7z"/>
<path d="M2184 5646 c-9 -24 4 -48 23 -44 12 2 18 12 18 28 0 29 -32 41 -41
16z m36 -16 c0 -11 -7 -20 -15 -20 -8 0 -15 9 -15 20 0 11 7 20 15 20 8 0 15
-9 15 -20z"/>
<path d="M2331 5623 c13 -15 12 -16 -6 -9 -15 5 -17 4 -8 -5 11 -11 33 -5 33
11 0 4 -7 11 -16 14 -15 6 -15 4 -3 -11z"/>
<path d="M3870 5325 c0 -14 4 -25 10 -25 5 0 7 7 3 16 -3 9 0 20 8 25 11 7 11
9 -3 9 -13 0 -18 -8 -18 -25z"/>
<path d="M3910 5335 c0 -8 7 -15 15 -15 8 0 15 7 15 15 0 8 -7 15 -15 15 -8 0
-15 -7 -15 -15z"/>
<path d="M4012 5325 c0 -16 2 -22 5 -12 2 9 2 23 0 30 -3 6 -5 -1 -5 -18z"/>
<path d="M4040 5335 c0 -8 7 -15 15 -15 8 0 15 7 15 15 0 8 -7 15 -15 15 -8 0
-15 -7 -15 -15z"/>
<path d="M4092 5325 c6 -14 13 -24 14 -22 6 6 -9 47 -17 47 -5 0 -3 -11 3 -25z"/>
<path d="M4122 5325 c6 -14 13 -24 14 -22 6 6 -9 47 -17 47 -5 0 -3 -11 3 -25z"/>
<path d="M4158 5343 c7 -3 16 -2 19 1 4 3 -2 6 -13 5 -11 0 -14 -3 -6 -6z"/>
<path d="M4174 5321 c4 -5 0 -12 -6 -14 -8 -3 -6 -6 5 -6 9 -1 17 6 17 14 0 8
-5 15 -11 15 -5 0 -8 -4 -5 -9z"/>
<path d="M3578 5193 c12 -2 22 -11 22 -20 0 -9 -6 -13 -15 -9 -8 3 -15 1 -15
-5 0 -7 10 -9 25 -5 21 5 25 3 26 -16 1 -22 1 -22 8 2 4 15 3 27 -3 29 -6 2
-15 10 -19 17 -4 8 -18 13 -30 13 l-22 -2 23 -4z"/>
<path d="M3370 5163 c0 -6 -8 -14 -17 -16 -14 -4 -13 -5 4 -6 12 0 23 -7 26
-13 2 -7 6 -11 9 -8 3 3 -1 16 -9 30 -7 14 -13 20 -13 13z"/>
<path d="M3469 5161 c9 -6 10 -10 2 -14 -8 -4 -8 -5 1 -3 20 4 21 26 1 26 -14
0 -15 -2 -4 -9z"/>
<path d="M3662 5145 c0 -16 2 -22 5 -12 2 9 2 23 0 30 -3 6 -5 -1 -5 -18z"/>
<path d="M3684 5155 c-7 -17 3 -35 19 -34 9 0 9 2 0 6 -7 2 -13 11 -13 18 0 7
6 16 13 18 9 4 9 6 -1 6 -7 1 -15 -6 -18 -14z"/>
<path d="M3734 5156 c-7 -18 3 -36 19 -36 7 0 6 4 -3 10 -13 8 -12 10 3 10 10
0 17 5 15 12 -7 19 -27 21 -34 4z"/>
<path d="M3560 5130 c0 -5 5 -10 10 -10 6 0 10 5 10 10 0 6 -4 10 -10 10 -5 0
-10 -4 -10 -10z"/>
<path d="M3468 5123 c7 -3 16 -2 19 1 4 3 -2 6 -13 5 -11 0 -14 -3 -6 -6z"/>
<path d="M3458 5103 c6 -2 18 -2 25 0 6 3 1 5 -13 5 -14 0 -19 -2 -12 -5z"/>
<path d="M3761 4981 c-1 -29 1 -32 14 -21 13 11 19 9 34 -9 10 -11 24 -21 30
-21 7 0 -1 12 -18 26 -17 14 -35 23 -40 20 -5 -4 -12 4 -14 16 -3 16 -5 13 -6
-11z"/>
<path d="M3921 4973 c0 -25 4 -43 10 -43 5 0 7 5 4 10 -3 6 -1 10 4 10 6 0 11
-4 11 -10 0 -5 5 -10 11 -10 8 0 8 4 -1 15 -6 8 -9 19 -5 24 3 6 0 8 -9 5 -9
-4 -16 2 -19 18 -2 13 -5 5 -6 -19z"/>
<path d="M3830 4973 c8 -3 23 -14 34 -25 11 -10 24 -18 29 -18 5 0 -5 11 -21
25 -17 14 -36 25 -43 24 -11 0 -11 -2 1 -6z"/>
<path d="M3880 4973 c8 -3 19 -11 23 -17 6 -7 7 -6 4 4 -2 8 -12 16 -23 17
-13 2 -15 1 -4 -4z"/>
<path d="M3989 4952 c9 -7 10 -11 2 -15 -7 -4 -8 -5 -1 -3 16 2 14 20 -2 24
-10 3 -10 2 1 -6z"/>
<path d="M341 4470 c-1 -3 -3 -29 -4 -58 -1 -38 2 -52 12 -52 8 0 11 6 7 15
-3 8 -1 15 5 15 5 0 12 -7 15 -15 4 -8 11 -15 17 -15 5 0 2 9 -9 21 -18 20
-18 21 1 35 16 12 17 14 2 14 -9 0 -17 -4 -17 -10 0 -25 -19 -6 -23 23 -2 17
-5 30 -6 27z"/>
<path d="M825 4415 c0 -30 5 -55 10 -55 6 0 9 23 7 55 -5 71 -17 71 -17 0z"/>
<path d="M88 4454 c6 -3 12 -20 12 -38 0 -18 -6 -38 -12 -45 -11 -10 -5 -12
26 -9 40 3 71 31 51 46 -5 4 -10 16 -10 27 0 16 -7 20 -40 22 -22 1 -34 0 -27
-3z m60 -16 c-7 -19 -38 -22 -38 -4 0 10 9 16 21 16 12 0 19 -5 17 -12z m5
-34 c11 -11 -5 -34 -24 -34 -12 0 -19 7 -19 20 0 19 28 28 43 14z"/>
<path d="M508 4453 c15 -6 16 -65 0 -81 -9 -9 -7 -12 9 -12 16 0 20 5 16 20
-4 13 0 20 10 20 8 0 20 7 27 15 18 22 -5 45 -44 44 -17 0 -25 -3 -18 -6z m50
-20 c-5 -25 -28 -28 -28 -4 0 12 6 21 16 21 9 0 14 -7 12 -17z"/>
<path d="M1019 4434 c-3 -23 4 -60 12 -69 6 -6 7 3 3 23 -5 26 -3 32 10 32 9
0 22 -11 28 -25 6 -14 16 -25 22 -25 6 0 5 5 -2 12 -7 7 -12 20 -12 30 0 10
-6 18 -14 18 -8 0 -21 3 -30 6 -9 3 -16 2 -17 -2z"/>
<path d="M197 4424 c-13 -13 -7 -55 8 -60 21 -9 47 15 43 40 -3 21 -37 34 -51
20z m38 -29 c0 -28 -29 -25 -33 3 -3 19 0 23 15 20 10 -2 18 -12 18 -23z"/>
<path d="M270 4415 c-17 -21 -2 -50 26 -50 14 0 19 7 19 30 0 34 -24 45 -45
20z m40 -20 c0 -28 -24 -34 -34 -9 -8 20 1 34 20 34 8 0 14 -10 14 -25z"/>
<path d="M420 4426 c0 -2 7 -7 16 -10 8 -3 12 -2 9 4 -6 10 -25 14 -25 6z"/>
<path d="M600 4415 c-17 -21 -2 -50 26 -50 14 0 19 7 19 30 0 34 -24 45 -45
20z m40 -20 c0 -28 -24 -34 -34 -9 -8 20 1 34 20 34 8 0 14 -10 14 -25z"/>
<path d="M669 4428 c0 -2 -1 -24 -2 -51 -1 -33 2 -47 11 -47 8 0 12 6 10 12
-3 7 5 18 16 23 13 7 21 20 21 35 0 20 -6 26 -27 28 -16 2 -28 2 -29 0z m46
-33 c0 -10 -5 -20 -11 -22 -13 -4 -27 24 -18 38 9 15 29 4 29 -16z"/>
<path d="M748 4395 c4 -31 7 -35 28 -32 14 2 24 6 24 10 0 4 0 18 0 32 0 14
-4 25 -8 25 -4 0 -8 -12 -7 -27 0 -14 -6 -28 -12 -30 -9 -3 -13 6 -13 26 0 17
-4 31 -8 31 -4 0 -6 -16 -4 -35z"/>
<path d="M860 4421 c0 -6 7 -8 15 -5 8 4 15 1 15 -5 0 -7 -7 -14 -15 -17 -25
-10 -17 -34 11 -34 23 0 25 3 22 33 -2 24 -8 33 -25 35 -13 2 -23 -1 -23 -7z
m35 -41 c-3 -5 -11 -10 -16 -10 -6 0 -7 5 -4 10 3 6 11 10 16 10 6 0 7 -4 4
-10z"/>
<path d="M929 4425 c0 0 -1 -15 -2 -33 -1 -18 3 -32 10 -32 6 0 9 9 6 21 -4
14 0 27 12 35 16 12 16 13 -4 11 -11 -1 -21 -1 -22 -2z"/>
<path d="M984 4395 c0 -19 4 -35 8 -35 4 0 8 16 8 35 0 19 -4 35 -8 35 -4 0
-8 -16 -8 -35z"/>
<path d="M420 4401 c0 -5 8 -12 18 -16 16 -7 15 -8 -3 -16 -19 -8 -19 -9 -1
-6 27 3 31 24 7 37 -12 6 -21 7 -21 1z"/>
<path d="M12699 4209 c-18 -34 -14 -103 7 -140 56 -95 210 -96 267 -1 20 34
22 99 5 137 -11 25 -12 25 -139 25 -120 0 -129 -1 -140 -21z"/>
<path d="M1813 4150 c0 -25 2 -35 4 -22 2 12 2 32 0 45 -2 12 -4 2 -4 -23z"/>
<path d="M2466 4180 c7 -8 14 -24 17 -35 4 -19 5 -19 6 1 0 12 -7 28 -16 35
-16 12 -17 12 -7 -1z"/>
<path d="M2414 4165 c-3 -8 -4 -20 -2 -27 3 -7 7 -1 10 15 6 29 1 36 -8 12z"/>
<path d="M2732 4140 c0 -19 2 -27 5 -17 2 9 2 25 0 35 -3 9 -5 1 -5 -18z"/>
<path d="M2072 4135 c0 -16 2 -22 5 -12 2 9 2 23 0 30 -3 6 -5 -1 -5 -18z"/>
<path d="M2142 4135 c0 -16 2 -22 5 -12 2 9 2 23 0 30 -3 6 -5 -1 -5 -18z"/>
<path d="M2282 4135 c0 -16 2 -22 5 -12 2 9 2 23 0 30 -3 6 -5 -1 -5 -18z"/>
<path d="M2348 4133 c5 -21 7 -23 10 -9 2 10 0 22 -6 28 -6 6 -7 0 -4 -19z"/>
<path d="M2512 4135 c0 -16 2 -22 5 -12 2 9 2 23 0 30 -3 6 -5 -1 -5 -18z"/>
<path d="M2575 4150 c-3 -5 -1 -10 4 -10 6 0 11 5 11 10 0 6 -2 10 -4 10 -3 0
-8 -4 -11 -10z"/>
<path d="M2791 4144 c0 -11 3 -14 6 -6 3 7 2 16 -1 19 -3 4 -6 -2 -5 -13z"/>
<path d="M2680 4146 c0 -2 8 -10 18 -17 15 -13 16 -12 3 4 -13 16 -21 21 -21
13z"/>
<path d="M1870 4129 c0 -5 5 -7 10 -4 6 3 10 8 10 11 0 2 -4 4 -10 4 -5 0 -10
-5 -10 -11z"/>
<path d="M9465 4090 c-11 -4 -31 -20 -45 -35 -21 -22 -25 -36 -25 -87 0 -56 2
-62 37 -94 74 -67 191 -37 219 55 26 87 -37 172 -125 170 -23 0 -50 -4 -61 -9z"/>
<path d="M1673 3970 c0 -25 2 -35 4 -22 2 12 2 32 0 45 -2 12 -4 2 -4 -23z"/>
<path d="M1843 3970 c0 -25 2 -35 4 -22 2 12 2 32 0 45 -2 12 -4 2 -4 -23z"/>
<path d="M2003 3970 c0 -25 2 -35 4 -22 2 12 2 32 0 45 -2 12 -4 2 -4 -23z"/>
<path d="M2037 3989 c4 -13 8 -18 11 -10 2 7 -1 18 -6 23 -8 8 -9 4 -5 -13z"/>
<path d="M2613 3970 c0 -25 2 -35 4 -22 2 12 2 32 0 45 -2 12 -4 2 -4 -23z"/>
<path d="M2653 3970 c0 -25 2 -35 4 -22 2 12 2 32 0 45 -2 12 -4 2 -4 -23z"/>
<path d="M2881 3994 c0 -11 3 -14 6 -6 3 7 2 16 -1 19 -3 4 -6 -2 -5 -13z"/>
<path d="M1577 3993 c-9 -9 -9 -51 1 -56 4 -3 7 10 7 29 0 19 0 34 -1 34 0 0
-4 -3 -7 -7z"/>
<path d="M1630 3995 c0 -5 5 -17 10 -25 5 -8 10 -10 10 -5 0 6 -5 17 -10 25
-5 8 -10 11 -10 5z"/>
<path d="M1800 3961 c0 -17 2 -31 4 -31 8 0 13 51 5 56 -5 3 -9 -9 -9 -25z"/>
<path d="M2386 3980 c7 -8 14 -24 17 -35 4 -19 5 -19 6 1 0 12 -7 28 -16 35
-16 12 -17 12 -7 -1z"/>
<path d="M2552 3955 c0 -16 2 -22 5 -12 2 9 2 23 0 30 -3 6 -5 -1 -5 -18z"/>
<path d="M2711 3969 c-1 -9 7 -23 17 -30 15 -12 16 -12 6 1 -6 8 -14 22 -17
30 -5 13 -6 12 -6 -1z"/>
<path d="M1901 3954 c0 -11 3 -14 6 -6 3 7 2 16 -1 19 -3 4 -6 -2 -5 -13z"/>
<path d="M2220 3949 c0 -5 5 -7 10 -4 6 3 10 8 10 11 0 2 -4 4 -10 4 -5 0 -10
-5 -10 -11z"/>
<path d="M2893 3800 c0 -25 2 -35 4 -22 2 12 2 32 0 45 -2 12 -4 2 -4 -23z"/>
<path d="M2705 3809 c-5 -14 -1 -27 11 -38 17 -15 17 -15 5 1 -7 9 -10 26 -6
38 3 11 4 20 1 20 -2 0 -8 -10 -11 -21z"/>
<path d="M2381 3799 c-1 -9 7 -23 17 -30 15 -12 16 -12 6 1 -6 8 -14 22 -17
30 -5 13 -6 12 -6 -1z"/>
<path d="M2812 3785 c0 -16 2 -22 5 -12 2 9 2 23 0 30 -3 6 -5 -1 -5 -18z"/>
<path d="M2842 3785 c0 -16 2 -22 5 -12 2 9 2 23 0 30 -3 6 -5 -1 -5 -18z"/>
<path d="M2582 3780 c0 -14 2 -19 5 -12 2 6 2 18 0 25 -3 6 -5 1 -5 -13z"/>
<path d="M2611 3784 c0 -11 3 -14 6 -6 3 7 2 16 -1 19 -3 4 -6 -2 -5 -13z"/>
<path d="M1873 3620 c0 -25 2 -35 4 -22 2 12 2 32 0 45 -2 12 -4 2 -4 -23z"/>
<path d="M2042 3648 c-14 -14 -16 -54 -3 -62 4 -3 6 6 3 19 -2 14 1 32 8 40
15 18 9 20 -8 3z"/>
<path d="M2213 3620 c0 -25 2 -35 4 -22 2 12 2 32 0 45 -2 12 -4 2 -4 -23z"/>
<path d="M2483 3620 c0 -25 2 -35 4 -22 2 12 2 32 0 45 -2 12 -4 2 -4 -23z"/>
<path d="M2663 3620 c0 -25 2 -35 4 -22 2 12 2 32 0 45 -2 12 -4 2 -4 -23z"/>
<path d="M2132 3605 c0 -16 2 -22 5 -12 2 9 2 23 0 30 -3 6 -5 -1 -5 -18z"/>
<path d="M2162 3605 c0 -16 2 -22 5 -12 2 9 2 23 0 30 -3 6 -5 -1 -5 -18z"/>
<path d="M2378 3603 c5 -21 7 -23 10 -9 2 10 0 22 -6 28 -6 6 -7 0 -4 -19z"/>
<path d="M2822 3605 c0 -16 2 -22 5 -12 2 9 2 23 0 30 -3 6 -5 -1 -5 -18z"/>
<path d="M2888 3603 c5 -21 7 -23 10 -9 2 10 0 22 -6 28 -6 6 -7 0 -4 -19z"/>
<path d="M2092 3600 c0 -14 2 -19 5 -12 2 6 2 18 0 25 -3 6 -5 1 -5 -13z"/>
<path d="M1930 3599 c0 -5 5 -7 10 -4 6 3 10 8 10 11 0 2 -4 4 -10 4 -5 0 -10
-5 -10 -11z"/>
<path d="M2540 3599 c0 -5 5 -7 10 -4 6 3 10 8 10 11 0 2 -4 4 -10 4 -5 0 -10
-5 -10 -11z"/>
<path d="M6275 3538 c-75 -41 -74 -148 2 -187 42 -21 83 -13 119 23 26 26 34
42 34 71 0 74 -91 129 -155 93z"/>
<path d="M273 3455 c0 -22 2 -30 4 -17 2 12 2 30 0 40 -3 9 -5 -1 -4 -23z"/>
<path d="M453 3450 c0 -25 2 -35 4 -22 2 12 2 32 0 45 -2 12 -4 2 -4 -23z"/>
<path d="M866 3475 c4 -8 8 -15 10 -15 2 0 4 7 4 15 0 8 -4 15 -10 15 -5 0 -7
-7 -4 -15z"/>
<path d="M1123 3450 c0 -25 2 -35 4 -22 2 12 2 32 0 45 -2 12 -4 2 -4 -23z"/>
<path d="M1226 3475 c4 -8 8 -15 10 -15 2 0 4 7 4 15 0 8 -4 15 -10 15 -5 0
-7 -7 -4 -15z"/>
<path d="M1440 3450 c0 -22 2 -40 4 -40 2 0 6 18 8 40 2 22 0 40 -4 40 -5 0
-8 -18 -8 -40z"/>
<path d="M2548 3450 c2 -22 6 -40 8 -40 2 0 4 18 4 40 0 22 -3 40 -8 40 -4 0
-6 -18 -4 -40z"/>
<path d="M2586 3477 c3 -10 9 -15 12 -12 3 3 0 11 -7 18 -10 9 -11 8 -5 -6z"/>
<path d="M1560 3471 c0 -6 4 -13 10 -16 6 -3 7 1 4 9 -7 18 -14 21 -14 7z"/>
<path d="M1950 3460 c0 -5 5 -10 11 -10 5 0 7 5 4 10 -3 6 -8 10 -11 10 -2 0
-4 -4 -4 -10z"/>
<path d="M238 3433 c5 -21 7 -23 10 -9 2 10 0 22 -6 28 -6 6 -7 0 -4 -19z"/>
<path d="M307 3439 c4 -13 8 -18 11 -10 2 7 -1 18 -6 23 -8 8 -9 4 -5 -13z"/>
<path d="M335 3450 c-3 -5 -1 -10 4 -10 6 0 11 5 11 10 0 6 -2 10 -4 10 -3 0
-8 -4 -11 -10z"/>
<path d="M608 3433 c5 -21 7 -23 10 -9 2 10 0 22 -6 28 -6 6 -7 0 -4 -19z"/>
<path d="M751 3450 c0 -8 4 -22 9 -30 12 -18 12 -2 0 25 -6 13 -9 15 -9 5z"/>
<path d="M1005 3450 c-3 -5 -1 -10 4 -10 6 0 11 5 11 10 0 6 -2 10 -4 10 -3 0
-8 -4 -11 -10z"/>
<path d="M1362 3435 c0 -16 2 -22 5 -12 2 9 2 23 0 30 -3 6 -5 -1 -5 -18z"/>
<path d="M1735 3450 c-3 -5 -1 -10 4 -10 6 0 11 5 11 10 0 6 -2 10 -4 10 -3 0
-8 -4 -11 -10z"/>
<path d="M2102 3435 c0 -16 2 -22 5 -12 2 9 2 23 0 30 -3 6 -5 -1 -5 -18z"/>
<path d="M2165 3450 c-3 -5 -1 -10 4 -10 6 0 11 5 11 10 0 6 -2 10 -4 10 -3 0
-8 -4 -11 -10z"/>
<path d="M2282 3435 c0 -16 2 -22 5 -12 2 9 2 23 0 30 -3 6 -5 -1 -5 -18z"/>
<path d="M2405 3439 c6 -30 15 -37 15 -11 0 11 -4 23 -9 27 -6 3 -8 -4 -6 -16z"/>
<path d="M2752 3435 c0 -16 2 -22 5 -12 2 9 2 23 0 30 -3 6 -5 -1 -5 -18z"/>
<path d="M1596 3437 c3 -10 9 -15 12 -12 3 3 0 11 -7 18 -10 9 -11 8 -5 -6z"/>
<path d="M510 3429 c0 -5 5 -7 10 -4 6 3 10 8 10 11 0 2 -4 4 -10 4 -5 0 -10
-5 -10 -11z"/>
<path d="M5231 3339 c-35 -32 -43 -65 -27 -103 26 -63 121 -70 161 -12 56 79
-63 181 -134 115z"/>
<path d="M830 3305 c0 -5 5 -17 10 -25 5 -8 10 -10 10 -5 0 6 -5 17 -10 25 -5
8 -10 11 -10 5z"/>
<path d="M1667 3289 c4 -13 8 -18 11 -10 2 7 -1 18 -6 23 -8 8 -9 4 -5 -13z"/>
<path d="M2142 3298 c-14 -14 -16 -54 -3 -62 4 -3 6 6 3 19 -2 14 1 32 8 40
15 18 9 20 -8 3z"/>
<path d="M2628 3270 c2 -22 6 -40 8 -40 2 0 4 18 4 40 0 22 -3 40 -8 40 -4 0
-6 -18 -4 -40z"/>
<path d="M2666 3297 c3 -10 9 -15 12 -12 3 3 0 11 -7 18 -10 9 -11 8 -5 -6z"/>
<path d="M2492 3260 c0 -19 2 -27 5 -17 2 9 2 25 0 35 -3 9 -5 1 -5 -18z"/>
<path d="M398 3253 c5 -21 7 -23 10 -9 2 10 0 22 -6 28 -6 6 -7 0 -4 -19z"/>
<path d="M702 3255 c0 -16 2 -22 5 -12 2 9 2 23 0 30 -3 6 -5 -1 -5 -18z"/>
<path d="M732 3255 c0 -16 2 -22 5 -12 2 9 2 23 0 30 -3 6 -5 -1 -5 -18z"/>
<path d="M925 3270 c3 -5 8 -10 11 -10 2 0 4 5 4 10 0 6 -5 10 -11 10 -5 0 -7
-4 -4 -10z"/>
<path d="M1292 3255 c0 -16 2 -22 5 -12 2 9 2 23 0 30 -3 6 -5 -1 -5 -18z"/>
<path d="M1551 3270 c0 -8 4 -22 9 -30 12 -18 12 -2 0 25 -6 13 -9 15 -9 5z"/>
<path d="M1912 3255 c0 -16 2 -22 5 -12 2 9 2 23 0 30 -3 6 -5 -1 -5 -18z"/>
<path d="M2262 3255 c0 -16 2 -22 5 -12 2 9 2 23 0 30 -3 6 -5 -1 -5 -18z"/>
<path d="M2762 3255 c0 -16 2 -22 5 -12 2 9 2 23 0 30 -3 6 -5 -1 -5 -18z"/>
<path d="M1162 3250 c0 -14 2 -19 5 -12 2 6 2 18 0 25 -3 6 -5 1 -5 -13z"/>
<path d="M2192 3250 c0 -14 2 -19 5 -12 2 6 2 18 0 25 -3 6 -5 1 -5 -13z"/>
<path d="M1000 3249 c0 -5 5 -7 10 -4 6 3 10 8 10 11 0 2 -4 4 -10 4 -5 0 -10
-5 -10 -11z"/>
<path d="M1060 3249 c0 -5 5 -7 10 -4 6 3 10 8 10 11 0 2 -4 4 -10 4 -5 0 -10
-5 -10 -11z"/>
<path d="M2390 3249 c0 -5 5 -7 10 -4 6 3 10 8 10 11 0 2 -4 4 -10 4 -5 0 -10
-5 -10 -11z"/>
<path d="M4862 3160 c-29 -27 -37 -64 -22 -101 39 -93 187 -47 165 52 -15 65
-96 93 -143 49z"/>
<path d="M1473 3100 c0 -25 2 -35 4 -22 2 12 2 32 0 45 -2 12 -4 2 -4 -23z"/>
<path d="M1630 3129 c0 -5 5 -7 10 -4 6 3 10 8 10 11 0 2 -4 4 -10 4 -5 0 -10
-5 -10 -11z"/>
<path d="M1967 3104 c4 -52 13 -55 13 -6 0 23 -4 42 -8 42 -5 0 -7 -16 -5 -36z"/>
<path d="M2362 3128 c-14 -14 -16 -54 -3 -62 4 -3 6 6 3 19 -2 14 1 32 8 40
15 18 9 20 -8 3z"/>
<path d="M2753 3100 c0 -25 2 -35 4 -22 2 12 2 32 0 45 -2 12 -4 2 -4 -23z"/>
<path d="M2502 3090 c0 -19 2 -27 5 -17 2 9 2 25 0 35 -3 9 -5 1 -5 -18z"/>
<path d="M1765 3100 c-3 -5 -1 -10 4 -10 6 0 11 5 11 10 0 6 -2 10 -4 10 -3 0
-8 -4 -11 -10z"/>
<path d="M2042 3085 c0 -16 2 -22 5 -12 2 9 2 23 0 30 -3 6 -5 -1 -5 -18z"/>
<path d="M2108 3083 c5 -21 7 -23 10 -9 2 10 0 22 -6 28 -6 6 -7 0 -4 -19z"/>
<path d="M2170 3099 c0 -5 5 -7 10 -4 6 3 10 8 10 11 0 2 -4 4 -10 4 -5 0 -10
-5 -10 -11z"/>
<path d="M2205 3100 c-3 -5 -1 -10 4 -10 6 0 11 5 11 10 0 6 -2 10 -4 10 -3 0
-8 -4 -11 -10z"/>
<path d="M2465 3089 c6 -30 15 -37 15 -11 0 11 -4 23 -9 27 -6 3 -8 -4 -6 -16z"/>
<path d="M2595 3100 c-3 -5 -1 -10 4 -10 6 0 11 5 11 10 0 6 -2 10 -4 10 -3 0
-8 -4 -11 -10z"/>
<path d="M2643 3070 c0 -25 2 -35 4 -22 2 12 2 32 0 45 -2 12 -4 2 -4 -23z"/>
<path d="M2712 3085 c0 -16 2 -22 5 -12 2 9 2 23 0 30 -3 6 -5 -1 -5 -18z"/>
<path d="M2875 3100 c-3 -5 -1 -10 4 -10 6 0 11 5 11 10 0 6 -2 10 -4 10 -3 0
-8 -4 -11 -10z"/>
<path d="M1530 3079 c0 -5 5 -7 10 -4 6 3 10 8 10 11 0 2 -4 4 -10 4 -5 0 -10
-5 -10 -11z"/>
<path d="M1650 3081 c0 -6 4 -13 10 -16 6 -3 7 1 4 9 -7 18 -14 21 -14 7z"/>
<path d="M1700 3079 c0 -5 5 -7 10 -4 6 3 10 8 10 11 0 2 -4 4 -10 4 -5 0 -10
-5 -10 -11z"/>
<path d="M2530 3079 c0 -5 5 -7 10 -4 6 3 10 8 10 11 0 2 -4 4 -10 4 -5 0 -10
-5 -10 -11z"/>
<path d="M4176 2971 c-21 -23 -24 -74 -5 -97 34 -41 106 -35 128 12 16 35 14
47 -10 78 -26 33 -86 37 -113 7z"/>
<path d="M2033 2920 c0 -25 2 -35 4 -22 2 12 2 32 0 45 -2 12 -4 2 -4 -23z"/>
<path d="M2230 2951 c0 -5 5 -13 10 -16 6 -3 10 -2 10 4 0 5 -4 13 -10 16 -5
3 -10 2 -10 -4z"/>
<path d="M2473 2920 c0 -25 2 -35 4 -22 2 12 2 32 0 45 -2 12 -4 2 -4 -23z"/>
<path d="M2893 2920 c0 -25 2 -35 4 -22 2 12 2 32 0 45 -2 12 -4 2 -4 -23z"/>
<path d="M1905 2919 c-5 -7 -4 -10 3 -5 6 3 18 -4 26 -16 9 -12 18 -19 21 -17
3 3 -6 16 -19 28 -18 17 -26 19 -31 10z"/>
<path d="M2162 2905 c0 -16 2 -22 5 -12 2 9 2 23 0 30 -3 6 -5 -1 -5 -18z"/>
<path d="M2542 2905 c0 -16 2 -22 5 -12 2 9 2 23 0 30 -3 6 -5 -1 -5 -18z"/>
<path d="M2608 2903 c5 -21 7 -23 10 -9 2 10 0 22 -6 28 -6 6 -7 0 -4 -19z"/>
<path d="M2671 2914 c0 -11 3 -14 6 -6 3 7 2 16 -1 19 -3 4 -6 -2 -5 -13z"/>
<path d="M2782 2905 c0 -16 2 -22 5 -12 2 9 2 23 0 30 -3 6 -5 -1 -5 -18z"/>
<path d="M2812 2905 c0 -16 2 -22 5 -12 2 9 2 23 0 30 -3 6 -5 -1 -5 -18z"/>
<path d="M2851 2904 c0 -11 3 -14 6 -6 3 7 2 16 -1 19 -3 4 -6 -2 -5 -13z"/>
<path d="M3771 2784 c-24 -31 -25 -37 -10 -67 16 -29 28 -37 60 -37 55 0 82
83 37 114 -33 23 -64 19 -87 -10z"/>
<path d="M223 2750 c0 -25 2 -35 4 -22 2 12 2 32 0 45 -2 12 -4 2 -4 -23z"/>
<path d="M543 2750 c0 -25 2 -35 4 -22 2 12 2 32 0 45 -2 12 -4 2 -4 -23z"/>
<path d="M848 2750 c2 -22 6 -40 8 -40 2 0 4 18 4 40 0 22 -3 40 -8 40 -4 0
-6 -18 -4 -40z"/>
<path d="M1573 2750 c0 -25 2 -35 4 -22 2 12 2 32 0 45 -2 12 -4 2 -4 -23z"/>
<path d="M2238 2750 c2 -22 6 -40 8 -40 2 0 4 18 4 40 0 22 -3 40 -8 40 -4 0
-6 -18 -4 -40z"/>
<path d="M2778 2750 c2 -22 6 -40 8 -40 2 0 4 18 4 40 0 22 -3 40 -8 40 -4 0
-6 -18 -4 -40z"/>
<path d="M1730 2771 c0 -6 4 -13 10 -16 6 -3 7 1 4 9 -7 18 -14 21 -14 7z"/>
<path d="M461 2753 c7 -12 15 -20 18 -17 3 2 -3 12 -13 22 -17 16 -18 16 -5
-5z"/>
<path d="M2542 2740 c0 -19 2 -27 5 -17 2 9 2 25 0 35 -3 9 -5 1 -5 -18z"/>
<path d="M952 2735 c0 -16 2 -22 5 -12 2 9 2 23 0 30 -3 6 -5 -1 -5 -18z"/>
<path d="M1018 2733 c5 -21 7 -23 10 -9 2 10 0 22 -6 28 -6 6 -7 0 -4 -19z"/>
<path d="M1080 2749 c0 -5 5 -7 10 -4 6 3 10 8 10 11 0 2 -4 4 -10 4 -5 0 -10
-5 -10 -11z"/>
<path d="M1152 2735 c0 -16 2 -22 5 -12 2 9 2 23 0 30 -3 6 -5 -1 -5 -18z"/>
<path d="M1212 2735 c0 -16 2 -22 5 -12 2 9 2 23 0 30 -3 6 -5 -1 -5 -18z"/>
<path d="M1922 2735 c0 -16 2 -22 5 -12 2 9 2 23 0 30 -3 6 -5 -1 -5 -18z"/>
<path d="M2672 2735 c0 -16 2 -22 5 -12 2 9 2 23 0 30 -3 6 -5 -1 -5 -18z"/>
<path d="M312 2730 c0 -14 2 -19 5 -12 2 6 2 18 0 25 -3 6 -5 1 -5 -13z"/>
<path d="M341 2734 c0 -11 3 -14 6 -6 3 7 2 16 -1 19 -3 4 -6 -2 -5 -13z"/>
<path d="M1766 2737 c3 -10 9 -15 12 -12 3 3 0 11 -7 18 -10 9 -11 8 -5 -6z"/>
<path d="M1801 2734 c0 -11 3 -14 6 -6 3 7 2 16 -1 19 -3 4 -6 -2 -5 -13z"/>
<path d="M2612 2730 c0 -14 2 -19 5 -12 2 6 2 18 0 25 -3 6 -5 1 -5 -13z"/>
<path d="M1630 2729 c0 -5 5 -7 10 -4 6 3 10 8 10 11 0 2 -4 4 -10 4 -5 0 -10
-5 -10 -11z"/>
<path d="M1960 2729 c0 -5 5 -7 10 -4 6 3 10 8 10 11 0 2 -4 4 -10 4 -5 0 -10
-5 -10 -11z"/>
<path d="M2440 2729 c0 -5 5 -7 10 -4 6 3 10 8 10 11 0 2 -4 4 -10 4 -5 0 -10
-5 -10 -11z"/>
<path d="M773 2570 c0 -25 2 -35 4 -22 2 12 2 32 0 45 -2 12 -4 2 -4 -23z"/>
<path d="M1236 2595 c4 -8 8 -15 10 -15 2 0 4 7 4 15 0 8 -4 15 -10 15 -5 0
-7 -7 -4 -15z"/>
<path d="M1773 2570 c0 -25 2 -35 4 -22 2 12 2 32 0 45 -2 12 -4 2 -4 -23z"/>
<path d="M1905 2600 c-7 -11 24 -75 32 -67 2 3 -3 17 -12 31 -9 14 -14 30 -10
36 3 5 4 10 1 10 -3 0 -8 -4 -11 -10z"/>
<path d="M2178 2570 c2 -22 6 -40 8 -40 2 0 4 18 4 40 0 22 -3 40 -8 40 -4 0
-6 -18 -4 -40z"/>
<path d="M2597 2589 c4 -13 8 -18 11 -10 2 7 -1 18 -6 23 -8 8 -9 4 -5 -13z"/>
<path d="M2833 2570 c0 -25 2 -35 4 -22 2 12 2 32 0 45 -2 12 -4 2 -4 -23z"/>
<path d="M3452 2598 c-27 -27 -6 -68 35 -68 29 0 48 33 33 60 -12 22 -49 27
-68 8z"/>
<path d="M1062 2560 c0 -19 2 -27 5 -17 2 9 2 25 0 35 -3 9 -5 1 -5 -18z"/>
<path d="M2140 2561 c0 -17 2 -31 4 -31 8 0 13 51 5 56 -5 3 -9 -9 -9 -25z"/>
<path d="M1322 2555 c0 -16 2 -22 5 -12 2 9 2 23 0 30 -3 6 -5 -1 -5 -18z"/>
<path d="M1352 2555 c0 -16 2 -22 5 -12 2 9 2 23 0 30 -3 6 -5 -1 -5 -18z"/>
<path d="M1525 2570 c-3 -5 -1 -10 4 -10 6 0 11 5 11 10 0 6 -2 10 -4 10 -3 0
-8 -4 -11 -10z"/>
<path d="M2252 2555 c0 -16 2 -22 5 -12 2 9 2 23 0 30 -3 6 -5 -1 -5 -18z"/>
<path d="M2342 2555 c0 -16 2 -22 5 -12 2 9 2 23 0 30 -3 6 -5 -1 -5 -18z"/>
<path d="M2763 2540 c0 -25 2 -35 4 -22 2 12 2 32 0 45 -2 12 -4 2 -4 -23z"/>
<path d="M1702 2550 c0 -14 2 -19 5 -12 2 6 2 18 0 25 -3 6 -5 1 -5 -13z"/>
<path d="M1731 2554 c0 -11 3 -14 6 -6 3 7 2 16 -1 19 -3 4 -6 -2 -5 -13z"/>
<path d="M2102 2550 c0 -14 2 -19 5 -12 2 6 2 18 0 25 -3 6 -5 1 -5 -13z"/>
<path d="M2631 2554 c0 -11 3 -14 6 -6 3 7 2 16 -1 19 -3 4 -6 -2 -5 -13z"/>
<path d="M1600 2549 c0 -5 5 -7 10 -4 6 3 10 8 10 11 0 2 -4 4 -10 4 -5 0 -10
-5 -10 -11z"/>
<path d="M2460 2549 c0 -5 5 -7 10 -4 6 3 10 8 10 11 0 2 -4 4 -10 4 -5 0 -10
-5 -10 -11z"/>
<path d="M3363 2340 c0 -25 2 -35 4 -22 2 12 2 32 0 45 -2 12 -4 2 -4 -23z"/>
<path d="M3973 2340 c0 -25 2 -35 4 -22 2 12 2 32 0 45 -2 12 -4 2 -4 -23z"/>
<path d="M4583 2340 c0 -25 2 -35 4 -22 2 12 2 32 0 45 -2 12 -4 2 -4 -23z"/>
<path d="M5193 2340 c0 -25 2 -35 4 -22 2 12 2 32 0 45 -2 12 -4 2 -4 -23z"/>
<path d="M5793 2340 c0 -25 2 -35 4 -22 2 12 2 32 0 45 -2 12 -4 2 -4 -23z"/>
<path d="M6403 2340 c0 -25 2 -35 4 -22 2 12 2 32 0 45 -2 12 -4 2 -4 -23z"/>
<path d="M7013 2340 c0 -25 2 -35 4 -22 2 12 2 32 0 45 -2 12 -4 2 -4 -23z"/>
<path d="M7623 2340 c0 -25 2 -35 4 -22 2 12 2 32 0 45 -2 12 -4 2 -4 -23z"/>
<path d="M8233 2340 c0 -25 2 -35 4 -22 2 12 2 32 0 45 -2 12 -4 2 -4 -23z"/>
<path d="M8843 2340 c0 -25 2 -35 4 -22 2 12 2 32 0 45 -2 12 -4 2 -4 -23z"/>
<path d="M9443 2340 c0 -25 2 -35 4 -22 2 12 2 32 0 45 -2 12 -4 2 -4 -23z"/>
<path d="M10053 2340 c0 -25 2 -35 4 -22 2 12 2 32 0 45 -2 12 -4 2 -4 -23z"/>
<path d="M10105 2369 c-4 -6 -5 -12 -2 -15 2 -3 7 2 10 11 7 17 1 20 -8 4z"/>
<path d="M10663 2340 c0 -25 2 -35 4 -22 2 12 2 32 0 45 -2 12 -4 2 -4 -23z"/>
<path d="M10715 2369 c-4 -6 -5 -12 -2 -15 2 -3 7 2 10 11 7 17 1 20 -8 4z"/>
<path d="M11273 2340 c0 -25 2 -35 4 -22 2 12 2 32 0 45 -2 12 -4 2 -4 -23z"/>
<path d="M11883 2340 c0 -25 2 -35 4 -22 2 12 2 32 0 45 -2 12 -4 2 -4 -23z"/>
<path d="M4082 2340 c0 -14 2 -19 5 -12 2 6 2 18 0 25 -3 6 -5 1 -5 -13z"/>
<path d="M5302 2340 c0 -14 2 -19 5 -12 2 6 2 18 0 25 -3 6 -5 1 -5 -13z"/>
<path d="M6512 2340 c0 -14 2 -19 5 -12 2 6 2 18 0 25 -3 6 -5 1 -5 -13z"/>
<path d="M7732 2340 c0 -14 2 -19 5 -12 2 6 2 18 0 25 -3 6 -5 1 -5 -13z"/>
<path d="M8952 2340 c0 -14 2 -19 5 -12 2 6 2 18 0 25 -3 6 -5 1 -5 -13z"/>
<path d="M10162 2340 c0 -14 2 -19 5 -12 2 6 2 18 0 25 -3 6 -5 1 -5 -13z"/>
<path d="M11382 2340 c0 -14 2 -19 5 -12 2 6 2 18 0 25 -3 6 -5 1 -5 -13z"/>
<path d="M12592 2340 c0 -14 2 -19 5 -12 2 6 2 18 0 25 -3 6 -5 1 -5 -13z"/>
<path d="M3555 2339 c-5 -7 -4 -10 3 -5 6 3 18 -4 26 -16 9 -12 18 -19 21 -17
3 3 -6 16 -19 28 -18 17 -26 19 -31 10z"/>
<path d="M4165 2339 c-5 -7 -4 -10 3 -5 6 3 18 -4 26 -16 9 -12 18 -19 21 -17
3 3 -6 16 -19 28 -18 17 -26 19 -31 10z"/>
<path d="M4775 2339 c-5 -7 -4 -10 3 -5 6 3 18 -4 26 -16 9 -12 18 -19 21 -17
3 3 -6 16 -19 28 -18 17 -26 19 -31 10z"/>
<path d="M5385 2339 c-5 -7 -4 -10 3 -5 6 3 18 -4 26 -16 9 -12 18 -19 21 -17
3 3 -6 16 -19 28 -18 17 -26 19 -31 10z"/>
<path d="M5985 2339 c-5 -7 -4 -10 3 -5 6 3 18 -4 26 -16 9 -12 18 -19 21 -17
3 3 -6 16 -19 28 -18 17 -26 19 -31 10z"/>
<path d="M6595 2339 c-5 -7 -4 -10 3 -5 6 3 18 -4 26 -16 9 -12 18 -19 21 -17
3 3 -6 16 -19 28 -18 17 -26 19 -31 10z"/>
<path d="M7205 2339 c-5 -7 -4 -10 3 -5 6 3 18 -4 26 -16 9 -12 18 -19 21 -17
3 3 -6 16 -19 28 -18 17 -26 19 -31 10z"/>
<path d="M7700 2341 c0 -6 4 -13 10 -16 6 -3 7 1 4 9 -7 18 -14 21 -14 7z"/>
<path d="M7815 2339 c-5 -7 -4 -10 3 -5 6 3 18 -4 26 -16 9 -12 18 -19 21 -17
3 3 -6 16 -19 28 -18 17 -26 19 -31 10z"/>
<path d="M8310 2341 c0 -6 4 -13 10 -16 6 -3 7 1 4 9 -7 18 -14 21 -14 7z"/>
<path d="M8425 2339 c-5 -7 -4 -10 3 -5 6 3 18 -4 26 -16 9 -12 18 -19 21 -17
3 3 -6 16 -19 28 -18 17 -26 19 -31 10z"/>
<path d="M9035 2339 c-5 -7 -4 -10 3 -5 6 3 18 -4 26 -16 9 -12 18 -19 21 -17
3 3 -6 16 -19 28 -18 17 -26 19 -31 10z"/>
<path d="M9635 2339 c-5 -7 -4 -10 3 -5 6 3 18 -4 26 -16 9 -12 18 -19 21 -17
3 3 -6 16 -19 28 -18 17 -26 19 -31 10z"/>
<path d="M10245 2339 c-5 -7 -4 -10 3 -5 6 3 18 -4 26 -16 9 -12 18 -19 21
-17 3 3 -6 16 -19 28 -18 17 -26 19 -31 10z"/>
<path d="M10855 2339 c-5 -7 -4 -10 3 -5 6 3 18 -4 26 -16 9 -12 18 -19 21
-17 3 3 -6 16 -19 28 -18 17 -26 19 -31 10z"/>
<path d="M11465 2339 c-5 -7 -4 -10 3 -5 6 3 18 -4 26 -16 9 -12 18 -19 21
-17 3 3 -6 16 -19 28 -18 17 -26 19 -31 10z"/>
<path d="M12075 2339 c-5 -7 -4 -10 3 -5 6 3 18 -4 26 -16 9 -12 18 -19 21
-17 3 3 -6 16 -19 28 -18 17 -26 19 -31 10z"/>
<path d="M12675 2339 c-5 -7 -4 -10 3 -5 6 3 18 -4 26 -16 9 -12 18 -19 21
-17 3 3 -6 16 -19 28 -18 17 -26 19 -31 10z"/>
<path d="M13285 2339 c-5 -7 -4 -10 3 -5 6 3 18 -4 26 -16 9 -12 18 -19 21
-17 3 3 -6 16 -19 28 -18 17 -26 19 -31 10z"/>
<path d="M405 1955 c0 -30 3 -55 8 -55 4 0 7 25 7 55 0 30 -3 55 -7 55 -5 0
-8 -25 -8 -55z"/>
<path d="M810 1957 c0 -31 4 -57 8 -57 8 0 5 100 -3 109 -3 2 -5 -21 -5 -52z"/>
<path d="M7090 2005 c-3 -5 -3 -32 0 -60 3 -27 7 -45 10 -40 3 6 3 33 0 60 -3
28 -7 46 -10 40z"/>
<path d="M7751 2010 c-8 -19 -4 -110 4 -110 6 0 11 12 10 27 0 14 6 28 14 31
10 3 13 -3 9 -27 -3 -19 0 -31 7 -31 7 0 9 13 7 36 -4 29 -8 35 -23 31 -13 -4
-19 2 -22 22 -2 14 -5 24 -6 21z"/>
<path d="M95 1950 c0 -31 4 -50 12 -50 6 0 9 9 6 20 -4 13 0 20 10 20 8 0 20
7 27 15 16 19 -3 45 -34 45 -19 0 -21 -6 -21 -50z m45 20 c0 -11 -7 -20 -15
-20 -8 0 -15 9 -15 20 0 11 7 20 15 20 8 0 15 -9 15 -20z"/>
<path d="M624 1985 c3 -8 9 -22 13 -32 5 -13 2 -15 -15 -11 -12 4 -22 2 -22
-3 0 -5 11 -9 25 -9 16 0 25 -6 25 -15 0 -8 6 -15 14 -15 11 0 10 8 -5 37 -10
21 -19 43 -19 50 0 7 -5 13 -11 13 -6 0 -8 -7 -5 -15z"/>
<path d="M6838 1993 c15 -6 16 -65 0 -81 -9 -9 -7 -12 9 -12 16 0 20 5 16 20
-4 13 0 20 10 20 8 0 20 7 27 15 18 22 -5 45 -44 44 -17 0 -25 -3 -18 -6z m50
-20 c-5 -25 -28 -28 -28 -4 0 12 6 21 16 21 9 0 14 -7 12 -17z"/>
<path d="M7566 1972 c5 -27 3 -32 -12 -33 -14 -1 -12 -3 6 -8 14 -4 24 -13 23
-19 -2 -7 3 -12 11 -12 12 0 11 8 -3 45 -21 55 -33 69 -25 27z"/>
<path d="M7268 1980 c-5 -17 3 -80 11 -80 7 0 6 79 -2 86 -3 3 -7 0 -9 -6z"/>
<path d="M7707 1983 c-6 -11 4 -83 12 -83 7 0 6 79 -2 86 -3 3 -7 2 -10 -3z"/>
<path d="M769 1972 c-3 -18 4 -58 11 -65 4 -5 5 4 2 18 -3 16 0 30 7 35 9 5 9
9 -3 13 -9 4 -16 3 -17 -1z"/>
<path d="M202 1964 c9 -3 19 -15 22 -27 4 -18 4 -18 3 3 -1 17 -8 25 -22 27
-14 1 -15 0 -3 -3z"/>
<path d="M249 1965 c0 0 -1 -21 -2 -48 -1 -30 2 -47 10 -47 6 0 9 9 6 20 -4
15 -2 19 10 14 8 -3 18 -1 22 5 3 7 0 8 -9 5 -20 -8 -33 23 -17 39 10 9 16 8
27 -7 14 -20 20 -11 6 11 -6 9 -42 15 -53 8z"/>
<path d="M328 1934 c4 -31 7 -35 26 -30 11 3 24 6 27 6 8 0 -2 60 -10 60 -4 0
-7 -12 -6 -27 0 -14 -6 -28 -12 -30 -9 -3 -13 6 -13 26 0 17 -4 31 -8 31 -4 0
-6 -16 -4 -36z"/>
<path d="M440 1961 c0 -6 7 -8 15 -5 8 4 15 1 15 -5 0 -7 -7 -14 -15 -17 -21
-8 -19 -34 3 -33 10 0 12 3 4 6 -6 2 -10 9 -6 14 9 14 22 10 28 -8 2 -10 4 -2
3 17 -2 28 -6 36 -24 38 -13 2 -23 -1 -23 -7z"/>
<path d="M509 1966 c-7 -8 -1 -66 8 -66 6 0 9 9 6 20 -3 11 0 26 6 33 8 10 7
14 -4 14 -8 0 -15 -1 -16 -1z"/>
<path d="M699 1938 c5 -25 12 -33 28 -33 11 0 21 3 22 8 4 25 0 57 -7 57 -4 0
-8 -12 -7 -27 0 -14 -6 -28 -12 -30 -9 -3 -13 6 -13 26 0 17 -4 31 -9 31 -5 0
-5 -15 -2 -32z"/>
<path d="M848 1935 c2 -19 7 -35 11 -35 4 0 5 16 3 35 -2 19 -7 35 -11 35 -4
0 -5 -16 -3 -35z"/>
<path d="M890 1955 c-17 -21 -2 -50 26 -50 14 0 19 7 19 30 0 34 -24 45 -45
20z m40 -20 c0 -28 -24 -34 -34 -9 -8 20 1 34 20 34 8 0 14 -10 14 -25z"/>
<path d="M960 1933 c0 -18 4 -33 9 -33 5 0 7 10 4 21 -4 14 0 27 12 35 16 12
16 13 -4 11 -17 -1 -21 -8 -21 -34z"/>
<path d="M6924 1935 c0 -19 5 -35 11 -35 7 0 9 14 7 35 -2 19 -7 35 -11 35 -4
0 -7 -16 -7 -35z"/>
<path d="M6975 1950 c-8 -24 10 -51 34 -49 14 1 14 2 -1 6 -18 5 -31 30 -22
44 9 16 24 10 34 -13 10 -23 10 -23 7 2 -3 33 -42 41 -52 10z"/>
<path d="M7054 1956 c-8 -22 -1 -49 14 -52 7 -1 8 0 2 3 -14 7 -13 50 3 56 9
4 9 6 -1 6 -7 1 -15 -5 -18 -13z"/>
<path d="M7128 1935 c4 -31 7 -35 28 -32 14 2 24 6 24 10 0 4 0 18 0 32 0 14
-4 25 -8 25 -4 0 -8 -12 -7 -27 0 -14 -6 -28 -12 -30 -9 -3 -13 6 -13 26 0 17
-4 31 -8 31 -4 0 -6 -16 -4 -35z"/>
<path d="M7205 1959 c-4 -6 -4 -13 -1 -16 3 -4 6 -1 6 6 0 8 8 11 20 8 11 -3
18 -1 14 4 -7 12 -31 11 -39 -2z"/>
<path d="M7314 1935 c0 -19 4 -35 8 -35 4 0 8 16 8 35 0 19 -4 35 -8 35 -4 0
-8 -16 -8 -35z"/>
<path d="M7357 1938 c21 -43 28 -49 19 -18 -4 14 -8 31 -8 38 -1 6 -7 12 -14
12 -9 0 -9 -8 3 -32z"/>
<path d="M7450 1959 c12 -9 11 -10 -7 -6 -15 3 -23 0 -23 -8 0 -26 12 -45 29
-45 14 1 14 2 -1 11 -24 13 -23 29 2 29 11 0 20 7 20 15 0 8 -8 15 -17 15 -16
0 -16 -2 -3 -11z"/>
<path d="M7629 1938 c4 -17 13 -34 21 -36 12 -4 13 -2 3 9 -7 7 -13 23 -13 36
0 13 -4 23 -9 23 -5 0 -6 -14 -2 -32z"/>
<path d="M7668 1935 c2 -19 7 -33 11 -30 9 5 1 65 -8 65 -4 0 -5 -16 -3 -35z"/>
<path d="M7827 1964 c-13 -13 -7 -55 8 -60 21 -9 47 15 43 40 -3 21 -37 34
-51 20z m38 -29 c0 -28 -29 -25 -33 3 -3 19 0 23 15 20 10 -2 18 -12 18 -23z"/>
<path d="M7899 1968 c-6 -20 -1 -68 6 -68 7 0 9 15 7 35 -3 29 -9 44 -13 33z"/>
<path d="M171 1939 c-1 -19 26 -45 36 -35 3 3 1 6 -6 6 -6 0 -16 10 -21 23 -6
15 -9 17 -9 6z"/>
<path d="M7203 1920 c2 -8 12 -16 23 -17 13 -2 15 -1 4 4 -8 3 -19 11 -23 17
-6 7 -7 6 -4 -4z"/>
<path d="M7515 1910 c-3 -5 1 -10 10 -10 9 0 13 5 10 10 -3 6 -8 10 -10 10 -2
0 -7 -4 -10 -10z"/>
<path d="M6222 1758 c-5 -7 -11 -24 -12 -38 -5 -60 1 -80 35 -115 32 -31 41
-35 90 -35 49 0 58 4 90 35 38 39 45 71 30 143 -5 21 -9 22 -114 22 -75 0
-112 -4 -119 -12z"/>
<path d="M12620 1736 c-31 -96 54 -183 153 -155 65 18 103 97 77 159 l-12 30
-103 0 -103 0 -12 -34z"/>
<path d="M11964 1646 c-43 -19 -64 -53 -64 -102 0 -34 6 -49 30 -72 74 -74
193 -25 192 79 -1 77 -85 128 -158 95z"/>
<path d="M12091 1446 c-8 -9 -31 -21 -52 -27 -33 -10 -43 -9 -80 9 -23 12 -46
19 -51 16 -4 -3 -8 -26 -8 -51 0 -37 5 -50 30 -73 16 -15 42 -30 57 -33 39 -7
93 13 116 44 20 28 25 86 10 114 -9 15 -11 15 -22 1z"/>
<path d="M12087 1290 c-31 -30 -83 -34 -130 -11 -22 11 -44 18 -49 15 -4 -3
-8 -25 -8 -48 0 -55 28 -92 80 -106 45 -12 92 2 123 38 19 21 26 89 11 114 -8
13 -11 13 -27 -2z"/>
</g>
</svg>
