<svg version="1.1" id="Layer_1" xmlns="http://www.w3.org/2000/svg" xmlns:xlink="http://www.w3.org/1999/xlink" x="0px" y="0px"
	 width="100%" viewBox="0 0 225 225" enable-background="new 0 0 225 225" xml:space="preserve">
<path fill="#091128" opacity="1.000000" stroke="none" 
	d="
M125.736160,1.337103 
	C158.106155,1.000000 190.212616,1.061126 222.318039,0.907082 
	C225.590866,0.891378 226.075226,1.835359 226.068298,4.804541 
	C225.968445,47.557076 226.000000,90.309914 226.000000,133.531342 
	C224.720657,135.030533 223.213333,134.908493 221.719284,134.841888 
	C214.919403,134.538818 208.115540,134.701813 201.314117,134.711243 
	C197.435516,134.716629 193.890854,133.850677 190.251450,132.386276 
	C183.707306,129.753098 176.680832,129.677811 169.719818,130.156174 
	C166.410706,130.383560 163.133087,131.026154 159.427979,129.917175 
	C156.589249,128.146606 156.676239,125.645363 156.556778,123.173973 
	C156.304947,117.964149 157.157639,112.715286 155.790939,107.169464 
	C155.355164,106.295464 155.202713,105.770767 155.105927,104.839447 
	C156.792816,98.685661 156.376541,92.588089 157.816040,86.772186 
	C158.126007,85.519829 158.371231,84.290184 156.891403,83.264069 
	C150.845337,79.071693 150.547729,78.033318 152.859421,71.299034 
	C153.070129,70.685219 153.439819,70.104790 153.204224,69.411087 
	C147.924332,72.928886 147.931152,72.921776 142.694275,67.896553 
	C141.628464,66.873802 139.924652,66.667229 139.025757,64.849548 
	C138.261856,62.376236 138.741684,60.138844 138.316925,58.054062 
	C136.760300,50.413994 132.486557,43.511669 132.125015,35.530052 
	C125.224129,26.805681 125.919960,16.096838 124.457825,5.963264 
	C124.247253,4.503915 124.553429,2.966504 125.736160,1.337103 
z"/>
<path fill="#091027" opacity="1.000000" stroke="none" 
	d="
M101.257431,225.671448 
	C68.757591,226.000000 36.515045,225.959396 4.273047,226.073929 
	C1.573866,226.083511 0.886175,225.628204 0.914348,222.790207 
	C1.085910,205.507339 1.000000,188.221893 1.000000,170.468658 
	C3.043357,168.114517 5.603634,168.362747 8.068753,168.351486 
	C18.842432,168.302246 29.616497,168.308884 40.390053,168.345566 
	C44.115562,168.358246 47.218502,167.700638 48.907814,163.803177 
	C50.020233,161.236694 52.532421,160.307465 55.118484,160.484146 
	C60.503811,160.852066 63.613602,158.777222 64.020187,153.197662 
	C64.055214,152.717072 64.477745,152.327713 65.096893,151.661819 
	C65.667320,151.279877 65.913849,151.164185 66.548828,150.953247 
	C69.872360,150.448624 72.045090,152.578217 75.020172,153.264099 
	C78.613831,156.708420 82.107559,159.622223 87.470474,159.811646 
	C88.054985,159.940735 88.287621,160.009598 88.855110,160.234390 
	C89.391945,160.535645 89.593910,160.680969 90.053879,161.096329 
	C90.446716,161.574127 90.581573,161.781891 90.862129,162.328918 
	C91.276428,166.425995 93.301422,167.093750 96.906197,167.266495 
	C100.016876,167.415527 103.901978,165.317886 106.572968,169.366913 
	C105.670929,174.975266 103.611588,179.911530 101.307114,184.600784 
	C99.397705,188.486130 98.417809,192.246445 98.556007,196.473953 
	C98.669586,199.948059 98.630234,203.429810 98.566132,206.906311 
	C98.503807,210.285904 99.016144,213.440445 100.861588,216.399109 
	C102.598206,219.183273 103.209816,222.223389 101.257431,225.671448 
z"/>
<path fill="#193445" opacity="1.000000" stroke="none" 
	d="
M225.643982,183.719513 
	C226.000000,196.782547 225.851746,209.567963 226.100861,222.345657 
	C226.165756,225.674606 225.095108,226.082474 222.181671,226.065887 
	C200.767456,225.943893 179.352234,226.000000 157.468658,226.000000 
	C154.832901,220.306290 152.092529,214.789139 152.304871,208.431244 
	C152.482742,203.106094 152.114059,197.806290 151.549210,192.491409 
	C150.534592,182.944580 156.454971,175.864395 166.053970,175.488861 
	C175.998398,175.099838 186.061340,174.491776 195.373596,179.427292 
	C197.941589,180.788345 200.931183,180.429596 203.738861,180.292313 
	C211.143097,179.930298 218.295914,181.083099 225.643982,183.719513 
z"/>
<path fill="#162F41" opacity="1.000000" stroke="none" 
	d="
M226.000000,183.539368 
	C216.312347,183.133301 206.707275,181.680923 196.897781,181.693619 
	C192.435745,181.699402 188.518417,177.831863 183.436295,177.435120 
	C176.943863,176.928284 170.452499,176.726746 164.047180,177.187103 
	C156.575119,177.724106 151.773300,185.004395 153.166763,193.122345 
	C153.821808,196.938492 153.807495,200.703125 154.037277,204.502014 
	C154.328644,209.319412 152.710648,214.366684 156.516617,218.808731 
	C157.625061,220.102402 156.890015,222.975586 157.000000,225.562378 
	C153.638718,226.000000 150.277420,226.000000 146.458069,226.000000 
	C145.162018,225.193573 144.063370,224.435577 143.979584,223.236206 
	C143.177246,211.750946 137.467545,201.011612 139.311661,189.052750 
	C140.423416,181.843201 145.644913,174.442551 152.776886,172.182022 
	C154.058350,171.775864 155.254303,171.247513 156.385025,170.525726 
	C166.030807,164.368347 176.129730,162.969223 187.266724,166.335846 
	C196.852264,169.233444 206.900986,169.596085 216.923935,169.417892 
	C219.848907,169.365891 222.991241,168.895248 225.690201,171.689774 
	C226.000000,175.692902 226.000000,179.385818 226.000000,183.539368 
z"/>
<path fill="#142A3C" opacity="1.000000" stroke="none" 
	d="
M226.000000,171.562500 
	C222.306900,170.665527 218.464172,171.002228 214.655960,171.004959 
	C203.690292,171.012848 192.888123,170.268066 182.391220,166.480484 
	C179.434753,165.413696 175.578644,165.373428 172.557129,166.275574 
	C167.173950,167.882874 160.746338,167.177246 156.761108,172.489227 
	C156.314621,173.084366 155.350098,173.363144 154.570847,173.625305 
	C145.045532,176.830139 140.909439,182.387299 141.031433,192.326080 
	C141.115585,199.182861 140.036713,206.044724 144.407089,212.514130 
	C146.701920,215.911118 144.064194,221.046494 145.942291,225.588013 
	C142.638718,226.000000 139.277420,226.000000 135.458069,226.000000 
	C132.598358,220.474899 132.104874,214.503494 130.880890,208.696075 
	C129.297836,201.184952 130.272156,194.127502 132.308762,186.694412 
	C134.465210,178.823914 138.420807,172.192627 142.532684,165.455444 
	C143.681305,163.573486 146.294937,163.215607 147.083588,160.572784 
	C147.188950,159.921021 147.253860,159.661682 147.491516,159.035248 
	C148.567062,157.591156 149.538437,156.634262 151.484604,156.869858 
	C155.112045,158.877243 158.284866,158.716980 161.865417,157.602661 
	C168.961060,155.394379 176.320190,156.014740 183.534302,157.080490 
	C190.881058,158.165833 198.180634,159.672318 205.484543,160.937515 
	C212.070877,162.078400 218.813400,162.794678 225.666763,164.738663 
	C226.000000,167.041672 226.000000,169.083328 226.000000,171.562500 
z"/>
<path fill="#162D59" opacity="1.000000" stroke="none" 
	d="
M1.309084,90.259178 
	C1.000000,87.299988 1.000000,84.599968 1.000000,81.449982 
	C3.218731,78.984497 5.975600,79.471481 8.583551,79.446869 
	C17.841204,79.359489 27.066961,79.857071 36.101257,76.624123 
	C43.021255,74.147766 49.371326,70.775261 55.930206,66.835014 
	C60.828510,64.858521 64.587929,62.280109 65.548157,56.643745 
	C65.595627,55.249912 65.807701,54.259281 66.302895,52.931816 
	C69.932632,47.896603 72.103798,42.824188 71.522629,36.827068 
	C71.379280,35.347866 71.574837,33.831398 72.540665,32.140404 
	C75.812927,30.973978 76.351059,33.222916 76.313080,35.159687 
	C76.184837,41.700230 77.454727,47.959705 79.149651,54.227547 
	C79.988060,57.327991 79.601944,60.797424 77.375183,63.204445 
	C74.747284,66.045090 74.369293,68.392693 77.136368,71.159309 
	C77.597229,71.620094 77.690582,72.350258 77.786377,73.427597 
	C77.428955,75.416916 76.291840,76.180443 74.476433,76.752777 
	C69.350533,75.472900 65.383652,75.995880 62.499306,80.631996 
	C61.379589,82.431755 59.263405,83.664482 57.110573,83.992867 
	C51.702698,84.817741 47.740360,88.166901 43.873245,91.492378 
	C40.637089,94.275291 37.125404,95.532425 32.974792,95.516785 
	C29.158628,95.502396 25.323244,95.278008 21.529573,95.576172 
	C14.272593,96.146545 7.806902,93.964851 1.309084,90.259178 
z"/>
<path fill="#1C325C" opacity="1.000000" stroke="none" 
	d="
M67.250107,52.663483 
	C67.000961,54.066601 67.000397,55.133575 66.999763,56.600655 
	C63.360329,59.844139 60.044273,62.953487 58.204346,67.722160 
	C57.041420,68.185303 55.855000,68.071472 55.156647,68.601143 
	C42.316895,78.339462 27.756531,81.930405 11.863461,81.027206 
	C8.564881,80.839752 5.246544,81.000000 1.468656,81.000000 
	C1.000000,78.958336 1.000000,76.916664 1.000000,74.437500 
	C2.908034,72.197731 5.324755,72.409798 7.615127,72.509743 
	C21.932997,73.134468 34.771450,68.976036 46.559624,60.976551 
	C51.337124,57.734528 54.433105,53.291035 56.382385,48.116402 
	C59.788334,39.074837 60.076965,29.600965 59.208298,20.088446 
	C58.860157,16.276089 56.252205,13.507489 54.273945,10.437656 
	C52.544346,7.753703 49.560490,5.509957 50.762379,1.323167 
	C53.700012,1.000000 56.400028,1.000000 59.550018,1.000000 
	C66.584053,5.857669 67.512527,13.264950 68.395821,20.492956 
	C68.976585,25.245363 68.410828,30.128822 69.860603,34.816456 
	C70.105385,35.607910 70.241653,36.533230 69.943016,37.281712 
	C68.010941,42.124168 67.881500,47.243340 67.250107,52.663483 
z"/>
<path fill="#0A132A" opacity="1.000000" stroke="none" 
	d="
M67.172630,151.610550 
	C64.263908,152.514481 65.006874,154.717194 65.039948,156.378479 
	C65.120079,160.402161 63.242393,162.182159 59.282745,162.012680 
	C57.460430,161.934692 55.631588,162.021957 53.805984,162.004852 
	C51.725033,161.985352 50.300022,162.687485 49.996433,164.998245 
	C49.434025,169.279068 46.471642,170.045639 42.769096,170.026932 
	C29.158804,169.958176 15.547955,169.999863 1.468657,170.000000 
	C1.000000,164.311966 1.000000,158.623917 1.000000,152.467941 
	C7.609265,148.779343 14.275516,149.981140 18.725288,155.195496 
	C22.264919,159.343323 27.799379,159.742035 31.129168,155.459610 
	C34.127655,151.603287 37.693192,150.334290 42.302650,150.409164 
	C48.282051,150.506287 52.942459,145.991180 58.784752,145.378098 
	C60.568916,145.190872 62.223389,144.162613 64.507378,144.360168 
	C67.595779,146.038300 67.492104,148.621994 67.172630,151.610550 
z"/>
<path fill="#0D182E" opacity="1.000000" stroke="none" 
	d="
M158.681961,129.300140 
	C166.528244,129.576202 173.952148,127.201508 181.631882,128.786469 
	C185.625763,129.610748 189.760742,129.215073 193.231979,132.033936 
	C195.006088,133.474640 197.355499,132.894409 199.486694,133.010941 
	C208.042572,133.478775 216.666138,131.953659 225.585602,133.941711 
	C226.000000,139.022095 226.000000,144.044189 226.000000,149.533142 
	C223.523041,152.090347 220.785873,151.614120 218.001175,150.837448 
	C207.481171,147.903336 196.669434,146.564407 185.846344,145.777496 
	C178.093994,145.213852 170.546158,143.017258 162.715561,143.272171 
	C161.246643,143.319977 159.851593,142.515488 158.287109,141.323059 
	C154.861954,137.139709 157.800858,133.418243 158.681961,129.300140 
z"/>
<path fill="#0C1631" opacity="1.000000" stroke="none" 
	d="
M125.536819,1.000000 
	C126.162926,7.408565 125.045891,13.950136 128.681168,19.948360 
	C129.435150,21.192427 129.054489,23.207928 128.973389,24.856913 
	C128.804413,28.293074 128.922455,31.370415 132.630615,33.274700 
	C135.185196,34.586571 135.068542,37.341118 135.023239,39.907742 
	C134.951202,43.990688 134.852676,47.614677 138.578964,51.092571 
	C141.945068,54.234291 139.512802,59.680431 140.001099,64.540260 
	C139.553787,65.540077 138.980164,65.864494 137.969269,66.048218 
	C137.417206,66.077072 137.196777,66.068245 136.653687,65.997993 
	C135.921631,65.801666 135.522293,65.641975 134.853180,65.313339 
	C134.387695,65.076080 134.204346,64.977318 133.749481,64.727066 
	C133.114197,64.374596 132.751480,64.171715 132.110962,63.817383 
	C131.650391,63.556625 131.468597,63.445507 131.021912,63.152481 
	C129.578903,61.828590 128.233505,61.368729 126.274284,62.017197 
	C124.035965,62.217312 122.333313,61.814110 120.756577,60.093872 
	C120.549042,59.581345 120.459541,59.320705 120.531570,59.263531 
	C124.634987,56.006001 124.180740,52.743164 120.578430,49.451733 
	C120.439484,49.324776 120.375435,49.132187 120.362389,49.008278 
	C118.885864,34.986134 111.190056,22.308754 111.471230,7.910750 
	C111.512978,5.772784 111.196136,3.558384 112.751175,1.310118 
	C117.024544,1.000000 121.049088,1.000000 125.536819,1.000000 
z"/>
<path fill="#0C172C" opacity="1.000000" stroke="none" 
	d="
M101.466118,226.000000 
	C101.079529,222.047104 101.474724,218.078079 98.074829,214.957062 
	C97.005600,213.975540 96.951935,212.264114 96.990433,210.730286 
	C97.040245,208.745911 97.258148,206.719543 96.958412,204.780075 
	C94.952339,191.799805 100.812256,180.867691 105.956444,169.366547 
	C105.857468,168.816467 105.712097,168.625931 105.712021,168.107254 
	C106.426025,167.308441 107.096664,167.129135 108.156960,167.106598 
	C109.568130,167.278854 110.629852,167.635391 112.060188,167.226410 
	C112.856483,167.125839 113.320435,167.125153 114.144478,167.210403 
	C115.698006,167.637680 116.977249,167.777206 118.303963,168.831436 
	C118.864235,169.580460 119.070175,170.076004 119.262062,171.010727 
	C119.555847,173.657120 118.550652,175.576248 117.857719,177.612946 
	C114.992111,186.035706 112.165398,194.318939 114.120399,203.646622 
	C115.256325,209.066330 114.915237,214.787262 117.101112,220.101562 
	C117.785461,221.765366 117.616325,223.697998 116.256516,225.672394 
	C111.310745,226.000000 106.621490,226.000000 101.466118,226.000000 
z"/>
<path fill="#213760" opacity="1.000000" stroke="none" 
	d="
M50.625000,1.000000 
	C51.199677,5.150420 54.172173,7.862226 56.441689,10.797434 
	C59.525150,14.785333 61.122566,18.932087 61.092121,24.055775 
	C61.048649,31.372684 61.135155,38.667660 58.852566,45.702091 
	C56.447330,53.114487 52.981720,59.777431 45.397697,63.324528 
	C41.816284,64.999580 38.866611,67.671722 35.102520,69.247795 
	C24.389177,73.733597 13.271101,74.389648 1.468151,74.000000 
	C1.000000,72.285645 1.000000,70.571281 1.000000,68.428467 
	C2.155632,66.890060 3.604972,66.427864 5.127924,66.544655 
	C12.047687,67.075340 18.746899,65.277847 25.398493,64.078392 
	C32.944099,62.717724 39.340477,58.884308 44.722122,52.754494 
	C52.222645,44.211227 52.747257,34.594585 51.666302,24.288811 
	C51.457352,22.296684 51.459385,20.297956 51.447750,17.903427 
	C50.851521,13.794699 49.267662,10.391413 48.080631,6.859822 
	C47.515057,5.177157 46.903904,3.462445 47.767326,1.319057 
	C48.750000,1.000000 49.500000,1.000000 50.625000,1.000000 
z"/>
<path fill="#142A54" opacity="1.000000" stroke="none" 
	d="
M77.235580,74.242386 
	C73.702286,69.765228 70.656395,65.773590 76.930176,61.155060 
	C78.720284,59.837242 78.697815,56.301849 77.734314,54.048725 
	C74.989807,47.630760 74.751053,40.977280 74.961021,34.205151 
	C74.987968,33.335709 74.628120,32.602448 73.390839,32.100967 
	C72.326538,31.462984 71.784897,30.740213 71.778435,29.924063 
	C71.702477,20.320698 69.062569,11.109454 67.764633,1.365172 
	C71.361290,1.000000 74.722572,1.000000 78.541931,1.000000 
	C80.858307,2.944481 81.090790,5.578650 81.336990,7.944055 
	C82.258080,16.793379 84.869995,25.323835 85.841164,34.182171 
	C86.588142,40.995693 89.554832,47.493771 88.727859,54.615765 
	C88.387352,57.548214 88.525848,60.560867 88.308441,63.928864 
	C87.449699,67.544022 83.706108,68.502403 82.518127,71.859589 
	C82.236519,72.357010 82.118950,72.552444 81.796906,73.020004 
	C81.431503,73.450127 81.270569,73.608131 80.824760,73.943085 
	C80.358719,74.249710 80.177551,74.379379 79.689224,74.639252 
	C78.708916,74.897331 78.067032,74.819885 77.235580,74.242386 
z"/>
<path fill="#0B1530" opacity="1.000000" stroke="none" 
	d="
M65.316132,144.932739 
	C59.404579,147.709518 52.727417,147.328262 47.536514,151.446335 
	C45.633389,152.956131 42.693844,152.002670 40.239304,151.956543 
	C36.994026,151.895538 34.753136,152.812012 32.934566,155.859360 
	C29.157625,162.188354 20.361012,161.705261 16.936127,155.140915 
	C15.791850,152.947723 14.281420,151.940277 11.859133,151.987167 
	C8.550160,152.051208 5.238980,152.001144 1.464373,152.000000 
	C1.000000,149.958328 1.000000,147.916672 1.000000,145.437500 
	C6.214337,141.935272 11.506268,143.934555 16.288481,145.640839 
	C22.260483,147.771637 27.501158,147.462234 33.567585,145.762177 
	C40.701015,143.763107 47.649002,141.101654 54.867378,139.484650 
	C60.314579,138.264420 64.525993,135.319916 66.724068,130.550888 
	C68.545341,126.599396 71.000114,123.570541 74.590683,120.773949 
	C77.351517,119.834709 78.385208,122.288696 80.536621,123.070045 
	C81.030579,123.444000 81.210358,123.615776 81.584244,124.105034 
	C82.266960,125.584671 82.294212,126.794624 82.081825,128.367249 
	C81.628014,130.110229 80.480835,130.902191 79.353775,132.116501 
	C79.056908,132.555542 78.929993,132.723206 78.592529,133.119568 
	C77.814148,133.893524 77.127098,134.332474 76.706238,135.387299 
	C76.093773,136.851227 75.332840,137.785370 73.804955,138.313324 
	C73.327271,138.331726 73.140961,138.297363 72.718552,138.137466 
	C72.482445,138.011932 72.032379,137.800385 71.795250,137.775497 
	C71.558121,137.750610 71.105858,137.910782 70.910927,138.059357 
	C70.328766,138.566269 70.043037,138.999039 69.674744,139.727570 
	C68.659790,141.951065 67.531715,143.718445 65.316132,144.932739 
z"/>
<path fill="#0E1E3F" opacity="1.000000" stroke="none" 
	d="
M1.331876,133.260254 
	C1.000000,129.969406 1.000000,126.938812 1.000000,123.454109 
	C3.664109,120.774712 6.661224,121.510269 9.531937,122.241310 
	C13.067429,123.141640 16.638515,123.874649 20.178226,124.747078 
	C21.628412,125.104492 23.157869,125.664223 24.585711,125.365997 
	C34.839085,123.224442 45.724941,122.993744 54.113323,115.239403 
	C58.547623,111.140266 64.518021,108.625877 67.239548,102.227615 
	C67.699753,101.750900 67.910568,101.584915 68.494019,101.259789 
	C69.673409,100.899712 70.472710,100.934502 71.620560,101.362701 
	C72.581490,102.119865 72.829140,102.848335 72.891312,104.031235 
	C71.653152,107.090736 73.270004,109.578842 73.443542,112.556564 
	C73.749580,115.744110 72.283302,117.607811 69.770874,118.053452 
	C62.569572,119.330788 57.681068,124.154282 52.909832,128.950943 
	C48.900322,132.981796 44.266525,135.223373 38.771206,135.342819 
	C27.825062,135.580734 16.854246,136.290192 5.940129,134.670685 
	C4.467191,134.452118 2.943974,134.445251 1.331876,133.260254 
z"/>
<path fill="#112437" opacity="1.000000" stroke="none" 
	d="
M147.688843,159.752625 
	C149.606110,161.379623 148.994690,163.099411 147.632782,163.652695 
	C144.778473,164.812347 144.272247,168.058746 142.641449,169.347855 
	C134.019867,176.162918 135.490356,187.000198 131.337997,195.510757 
	C129.445435,199.389679 132.216705,204.212799 132.373260,208.651672 
	C132.570786,214.251465 135.693512,219.378448 135.000000,225.557800 
	C132.299988,226.000000 129.599976,226.000000 126.449982,226.000000 
	C122.429207,219.184387 121.990784,211.693832 121.405212,204.257202 
	C120.801300,196.587555 122.501022,189.011688 122.521309,181.356140 
	C122.532974,176.954224 126.083717,174.379013 128.465775,170.771515 
	C133.209961,168.677887 136.002609,165.155594 138.473541,160.804459 
	C138.849121,160.346207 139.007050,160.167603 139.446320,159.764313 
	C139.941727,159.428802 140.155777,159.317993 140.713699,159.093353 
	C141.529785,158.875214 142.006500,158.799133 142.848785,158.719727 
	C143.451782,158.677124 143.693756,158.666229 144.299927,158.660889 
	C145.644897,158.740967 146.598145,158.904724 147.688843,159.752625 
z"/>
<path fill="#122852" opacity="1.000000" stroke="none" 
	d="
M1.318913,109.252777 
	C1.000000,106.299988 1.000000,103.599968 1.000000,100.449982 
	C6.422004,97.972061 11.707275,96.958557 17.794178,97.639793 
	C25.890121,98.545883 34.096905,100.948753 42.384640,98.671486 
	C43.667210,98.319069 45.312183,98.304420 46.052017,97.269165 
	C49.866161,91.932037 56.557705,90.457420 60.944996,85.931877 
	C62.700722,84.120819 64.850334,83.331039 67.295837,84.195442 
	C69.346413,84.920265 70.713287,86.265610 69.956757,89.106018 
	C65.561066,95.361832 61.007885,100.782768 53.189823,101.921776 
	C51.498573,102.168175 50.305256,103.505196 48.985001,104.512535 
	C43.034740,109.052551 35.901661,110.953453 28.968433,113.182144 
	C26.158131,114.085518 22.765989,114.228798 20.098671,113.041603 
	C14.152807,110.395149 7.666476,111.264801 1.318913,109.252777 
z"/>
<path fill="#142A54" opacity="1.000000" stroke="none" 
	d="
M68.917084,89.357376 
	C70.084862,86.889122 68.780098,85.819572 67.108124,85.258461 
	C65.077187,84.576874 62.840912,84.839798 61.856205,86.867683 
	C60.400318,89.865913 58.243000,91.212166 55.032257,91.625237 
	C53.868771,91.774933 52.399937,92.764351 51.832203,93.791618 
	C48.918816,99.063118 43.800568,100.135956 38.616711,101.303772 
	C37.298824,101.600662 36.108990,102.045181 34.786087,101.421051 
	C30.877300,99.576927 26.692879,99.981422 22.565496,100.011734 
	C20.065695,100.030083 17.600304,100.065956 15.338903,98.710419 
	C13.980674,97.896263 12.428164,97.703903 11.064328,98.539429 
	C8.174477,100.309822 5.017007,99.996559 1.440961,100.000000 
	C1.000000,96.969406 1.000000,93.938812 1.000000,90.454109 
	C2.681251,89.918877 4.374017,89.990593 5.853030,90.842026 
	C15.486005,96.387428 25.992622,93.501785 36.118343,93.815765 
	C41.455502,93.981270 44.168667,88.587944 48.286011,86.033737 
	C50.569447,84.617203 52.494522,82.989014 55.380482,82.948746 
	C58.418488,82.906349 61.169468,81.169121 62.349049,78.773499 
	C65.053741,73.280495 68.705750,73.275917 73.666336,75.853172 
	C75.688622,78.361671 74.838173,80.749695 74.129906,83.154907 
	C73.620132,84.886063 72.429619,86.425926 72.637482,88.716888 
	C72.563667,89.300621 72.501305,89.531029 72.224075,90.051636 
	C71.585854,90.592819 71.126976,90.731262 70.274872,90.718956 
	C69.450417,90.463303 69.096191,90.141647 68.917084,89.357376 
z"/>
<path fill="#0E1D32" opacity="1.000000" stroke="none" 
	d="
M129.997375,169.569000 
	C129.442215,171.358185 129.265640,173.250977 128.250748,173.985596 
	C123.606529,177.347275 124.258316,182.112106 123.890327,186.913300 
	C123.208771,195.805649 122.491760,204.607285 123.879333,213.529495 
	C124.485779,217.429001 126.719772,221.027069 126.000000,225.571442 
	C122.969406,226.000000 119.938812,226.000000 116.454109,226.000000 
	C116.195221,222.466629 116.043854,219.018372 113.983589,215.918015 
	C112.918457,214.315155 112.981102,212.446136 112.990593,210.601273 
	C113.002586,208.270676 113.483307,205.772995 112.823456,203.637314 
	C109.700134,193.528244 113.744865,184.658020 117.133934,175.621399 
	C117.590263,174.404663 117.721313,173.065933 118.006989,171.387268 
	C121.749893,168.730057 125.559944,166.929535 129.997375,169.569000 
z"/>
<path fill="#0D1A39" opacity="1.000000" stroke="none" 
	d="
M112.545891,1.000000 
	C112.003204,10.387546 113.771477,19.669983 116.432999,28.374319 
	C118.389938,34.774380 121.268471,40.758896 121.184120,47.668755 
	C121.160942,49.566616 123.247086,50.563808 124.423332,51.931011 
	C125.467049,53.144176 127.244583,54.031071 126.738739,56.027725 
	C126.199974,58.154346 124.266411,57.815254 122.677139,58.124565 
	C122.125740,58.231880 121.671310,58.837475 121.088036,59.570305 
	C117.419800,62.777626 113.370102,61.540977 108.996811,61.095184 
	C107.718773,60.551777 107.135765,59.911762 106.750946,58.626434 
	C110.471992,52.871555 111.082832,47.340992 109.523491,40.833488 
	C106.787193,29.414236 104.191841,17.940414 101.933167,6.404457 
	C101.611320,4.760680 101.482407,3.107681 102.753334,1.304745 
	C106.030594,1.000000 109.061188,1.000000 112.545891,1.000000 
z"/>
<path fill="#101F33" opacity="1.000000" stroke="none" 
	d="
M157.720093,140.204559 
	C161.393631,142.062180 165.273224,141.471634 168.919327,142.143829 
	C179.906342,144.169373 191.289429,143.047882 202.066498,146.498169 
	C202.843735,146.747009 203.673569,146.941376 204.483597,146.960114 
	C209.551819,147.077499 214.643646,146.444122 219.272888,149.714005 
	C220.618958,150.664810 223.140945,149.950836 225.561951,150.000000 
	C226.000000,151.714355 226.000000,153.428711 226.000000,155.571533 
	C222.486374,158.899872 218.221146,158.814728 214.110779,158.592651 
	C208.479050,158.288361 202.847946,157.791870 196.802612,157.095474 
	C193.116043,154.996307 189.682053,153.811646 185.852859,153.101318 
	C176.795059,151.421097 167.826340,149.484818 158.531448,150.772919 
	C157.061249,150.976669 155.537598,150.943405 154.258377,149.221283 
	C153.774429,148.057739 153.704102,147.235794 153.740356,146.005524 
	C153.908279,144.573135 154.315781,143.632202 154.987732,142.405457 
	C155.755508,141.293060 156.563370,140.804886 157.720093,140.204559 
z"/>
<path fill="#11254E" opacity="1.000000" stroke="none" 
	d="
M68.691605,89.158920 
	C69.114914,89.314194 69.305779,89.572914 69.788002,89.890366 
	C70.509605,90.546394 70.879753,91.158539 71.004486,92.260269 
	C70.978134,92.846375 70.941116,93.076523 70.792313,93.632164 
	C69.574120,95.426277 69.091835,97.008919 69.849586,99.141113 
	C69.950531,100.174171 69.836998,100.839622 69.260147,101.722420 
	C68.870193,101.994911 68.696205,101.996407 68.261230,101.998955 
	C66.540749,102.773338 65.377869,104.044365 63.777458,104.572906 
	C57.259621,106.725395 51.255672,109.574371 46.867069,115.231079 
	C45.473255,117.027634 43.011452,117.777115 40.682518,118.196289 
	C31.413921,119.864555 22.207617,122.077950 12.774681,118.676788 
	C9.247449,117.405014 5.192006,118.092857 1.318002,116.252548 
	C1.000000,113.958336 1.000000,111.916664 1.000000,109.437500 
	C7.284184,109.063515 13.419847,108.898308 19.602566,111.397720 
	C23.446644,112.951721 28.064301,112.402374 32.584625,110.502060 
	C39.275154,107.689392 45.516354,104.360382 51.835407,100.881721 
	C55.743210,98.730461 60.110142,97.216866 63.954853,94.375626 
	C65.965652,92.889641 66.053413,90.186554 68.691605,89.158920 
z"/>
<path fill="#0F2043" opacity="1.000000" stroke="none" 
	d="
M102.555832,1.000000 
	C103.785667,11.623849 107.079628,21.747671 109.187630,32.108150 
	C110.302979,37.589931 111.783554,43.062614 112.168251,48.604034 
	C112.409142,52.073917 111.717285,56.054550 107.376221,57.999039 
	C105.563850,59.165668 104.218292,58.839642 102.651093,57.382774 
	C101.727562,44.919353 96.314514,33.702923 95.968842,21.437685 
	C95.835258,16.698072 92.721153,12.111876 93.376839,6.957537 
	C93.605598,5.159266 93.360054,3.287055 94.734207,1.339088 
	C97.370560,1.000000 99.741112,1.000000 102.555832,1.000000 
z"/>
<path fill="#0C1834" opacity="1.000000" stroke="none" 
	d="
M76.208519,120.633118 
	C69.902580,124.367546 69.290199,131.909180 64.359421,136.230957 
	C61.261879,138.945923 58.158192,141.056778 53.822426,141.049438 
	C49.051697,141.041382 45.918739,145.844284 40.900169,145.578598 
	C34.808773,145.256104 29.799925,149.675842 23.343246,149.288589 
	C18.369120,148.990265 14.892007,145.075043 9.745434,145.533875 
	C7.330750,145.749146 4.534030,145.105713 1.447978,145.000000 
	C1.000000,143.285645 1.000000,141.571289 1.000000,139.428467 
	C3.289953,136.962067 5.992809,137.475113 8.616184,137.867615 
	C18.210705,139.303116 27.792908,139.943558 37.460194,138.410339 
	C42.267712,137.647873 47.041977,137.047546 50.946503,133.749329 
	C51.707939,133.106125 52.610271,132.488022 53.578499,132.359482 
	C57.620525,131.822830 60.190601,130.199615 60.374557,125.560272 
	C60.456413,123.495758 62.749126,122.486687 64.656845,121.760612 
	C67.301964,120.753876 70.028061,119.957672 72.965767,118.548676 
	C73.639656,118.371094 73.917671,118.329651 74.616310,118.335770 
	C75.928703,118.694672 76.444450,119.282204 76.208519,120.633118 
z"/>
<path fill="#102247" opacity="1.000000" stroke="none" 
	d="
M1.000000,116.437500 
	C6.969223,115.973503 12.717545,117.012383 18.544159,118.448112 
	C23.192772,119.593567 28.368744,120.207771 33.062778,117.624115 
	C34.777023,116.680573 36.632164,117.033180 38.433292,117.015678 
	C42.357494,116.977570 45.872139,115.477264 47.897972,112.364517 
	C50.778091,107.939117 54.629158,105.822029 59.591816,104.841949 
	C62.410900,104.285202 64.525787,101.722679 67.788879,101.762329 
	C67.301987,105.641380 65.878387,108.763733 62.625359,110.960571 
	C57.840286,114.192039 53.217632,117.663071 48.495224,120.988640 
	C45.717758,122.944565 42.620213,123.985382 39.191845,124.012222 
	C38.037663,124.021248 36.689339,123.817825 35.761482,124.322006 
	C27.140511,129.006531 18.659483,126.242096 10.241222,123.849228 
	C7.437761,123.052361 4.692977,123.052238 1.443432,122.999893 
	C1.000000,120.958336 1.000000,118.916664 1.000000,116.437500 
z"/>
<path fill="#43526E" opacity="1.000000" stroke="none" 
	d="
M1.344007,46.266018 
	C1.000000,38.979053 1.000000,31.958105 1.000000,24.468578 
	C5.523839,19.417629 11.183331,18.719271 17.079868,19.775101 
	C25.894775,21.353497 29.502066,30.737703 24.596523,39.552513 
	C22.694784,43.616558 19.612410,45.416187 15.728392,45.464012 
	C11.013560,45.522060 6.548094,48.691750 1.344007,46.266018 
z"/>
<path fill="#0D1A39" opacity="1.000000" stroke="none" 
	d="
M74.262878,118.665375 
	C71.870461,121.690491 68.615295,122.019447 65.656830,122.948067 
	C62.527145,123.930428 60.031738,125.147713 61.542671,129.264206 
	C62.520164,131.927368 60.836552,133.070526 58.467255,132.937180 
	C54.826946,132.732285 52.175819,134.272034 49.662628,136.718079 
	C46.998222,139.311295 43.179909,139.217529 39.855545,139.732010 
	C29.367109,141.355179 18.831047,141.483810 8.338554,139.325531 
	C6.257603,138.897476 4.048514,139.092377 1.449258,139.000000 
	C1.000000,137.285645 1.000000,135.571289 1.000000,133.428467 
	C12.067461,134.307724 23.185966,133.869904 34.289734,134.031418 
	C41.743084,134.139801 47.922249,132.269348 53.360580,126.481415 
	C57.695099,121.868271 62.347851,116.688248 69.892326,116.737717 
	C71.903114,116.750908 72.921806,114.882996 72.031631,112.333069 
	C72.450211,111.616577 72.966583,111.465149 73.930336,111.726379 
	C74.479622,112.139641 74.648689,112.367165 74.979034,112.989578 
	C75.423180,115.093742 75.561111,116.784996 74.262878,118.665375 
z"/>
<path fill="#122539" opacity="1.000000" stroke="none" 
	d="
M195.680588,155.749786 
	C205.710922,155.268402 215.421707,158.561768 225.566345,156.000458 
	C226.000000,158.700012 226.000000,161.400024 226.000000,164.550018 
	C219.576340,164.852539 213.223969,163.386612 207.019669,162.757980 
	C193.557861,161.394043 180.529556,156.107544 166.708878,157.934036 
	C164.500763,158.225845 162.611877,158.859177 160.622375,159.802048 
	C157.092087,161.475159 153.722824,161.002609 151.051193,157.376740 
	C150.859879,154.660278 152.141327,152.784286 154.183716,152.606934 
	C162.286316,151.903397 169.967453,147.853058 178.693756,151.552002 
	C183.747131,153.694016 189.975327,153.304718 195.680588,155.749786 
z"/>
<path fill="#10244A" opacity="1.000000" stroke="none" 
	d="
M94.550018,1.000000 
	C95.004944,5.138617 93.657890,9.952692 95.313538,13.266612 
	C98.212219,19.068600 97.127670,25.123962 98.578018,30.861656 
	C100.145515,37.062798 100.739220,43.550484 103.613907,49.409168 
	C104.758804,51.742508 102.629272,53.870403 103.001617,56.593307 
	C99.480598,59.885521 96.017693,63.043034 90.933250,59.099213 
	C92.968826,52.238564 92.950729,45.707474 91.015091,39.143787 
	C90.826820,38.505363 90.613098,37.831139 90.661346,37.182899 
	C91.386330,27.441748 87.843140,18.530233 85.337730,9.412023 
	C84.632698,6.846106 83.924858,4.222205 85.738525,1.335129 
	C88.700012,1.000000 91.400032,1.000000 94.550018,1.000000 
z"/>
<path fill="#2D4065" opacity="1.000000" stroke="none" 
	d="
M1.336876,63.263954 
	C1.000000,61.933331 1.000000,60.866661 1.000000,59.399994 
	C5.738141,56.497028 10.984792,56.818253 16.058935,56.498714 
	C27.017471,55.808609 35.457184,51.321774 39.280045,40.671555 
	C42.017796,33.044376 43.136761,25.109758 38.613548,17.503628 
	C37.764881,16.076525 37.091515,14.542534 36.248718,12.653939 
	C35.554615,10.454380 34.999157,8.627827 35.560188,6.312418 
	C40.827141,5.458809 45.569473,8.743730 48.293076,15.005254 
	C49.405571,22.623051 50.533592,29.722168 49.790089,37.154026 
	C49.191265,43.139713 47.349022,47.451748 42.950745,51.837505 
	C32.489723,62.268742 19.919708,65.058212 5.969716,64.555023 
	C4.471226,64.500977 2.968469,64.443924 1.336876,63.263954 
z"/>
<path fill="#11274F" opacity="1.000000" stroke="none" 
	d="
M85.562500,1.000000 
	C85.767143,7.241058 87.450470,13.095351 89.941124,18.694021 
	C90.918930,20.892012 91.531166,23.275450 91.488487,25.393763 
	C91.301201,34.690590 94.515190,43.622150 94.092155,52.934795 
	C93.980804,55.386127 93.092758,56.959030 91.181450,58.678005 
	C91.573044,62.139828 90.638336,64.595230 87.383911,66.084488 
	C87.002617,60.842693 87.002457,55.691410 86.999634,50.540131 
	C86.997467,46.590199 87.557884,42.525829 84.646568,39.170483 
	C84.441307,38.933922 84.244904,38.540665 84.288971,38.258457 
	C85.578667,29.998079 80.398941,22.624350 81.021667,14.479687 
	C81.357361,10.089149 77.941521,6.346420 79.000000,1.435103 
	C81.041664,1.000000 83.083336,1.000000 85.562500,1.000000 
z"/>
<path fill="#344669" opacity="1.000000" stroke="none" 
	d="
M36.653244,11.763722 
	C47.557640,24.823011 42.873611,42.785347 34.122429,51.463406 
	C29.643185,55.905220 23.938625,56.956104 18.250160,57.830791 
	C12.870016,58.658073 7.360482,58.643871 1.453928,58.999886 
	C1.000000,57.285641 1.000000,55.571285 1.000000,53.428463 
	C4.911950,50.161621 9.472637,50.654560 13.902097,50.500965 
	C27.158382,50.041290 35.990601,40.322067 35.161510,26.671936 
	C35.445095,21.767214 31.583405,17.926285 33.203461,12.854149 
	C34.122074,11.456405 35.102943,11.151344 36.653244,11.763722 
z"/>
<path fill="#273C64" opacity="1.000000" stroke="none" 
	d="
M1.000000,63.416664 
	C9.595719,62.990860 18.232235,63.428337 26.576334,60.664165 
	C32.360004,58.748192 36.566807,54.630638 41.247387,50.942913 
	C51.718853,42.692673 48.299500,32.108719 47.437946,21.798225 
	C47.273094,19.825411 47.145470,17.849489 47.001083,15.438246 
	C49.370327,13.459414 50.760929,15.469894 52.710632,16.747791 
	C52.928322,24.544918 54.739960,32.083244 53.025223,39.638035 
	C52.772663,40.750751 53.254826,42.180943 52.723976,43.055878 
	C48.580944,49.884380 44.988594,57.005337 37.371235,61.145985 
	C26.181454,67.228539 14.131466,67.743912 1.465453,67.999924 
	C1.000000,66.611115 1.000000,65.222221 1.000000,63.416664 
z"/>
<path fill="#3C4C6D" opacity="1.000000" stroke="none" 
	d="
M36.037567,25.588226 
	C38.752918,34.347939 32.339203,46.465172 23.842587,50.002865 
	C16.695457,52.978687 9.072934,51.198231 1.433863,52.999554 
	C1.000000,50.958332 1.000000,48.916668 1.000000,46.437500 
	C6.884350,46.440239 12.315397,43.633179 18.189388,43.634705 
	C20.239697,43.635235 22.213058,42.088490 22.956440,39.358650 
	C29.553141,36.658379 31.325012,31.043364 32.852051,24.796368 
	C34.263218,24.121094 35.267742,24.196350 36.037567,25.588226 
z"/>
<path fill="#404F6A" opacity="1.000000" stroke="none" 
	d="
M32.960022,24.590233 
	C33.953812,33.018536 29.946016,38.657078 23.389042,38.998772 
	C25.730303,34.954433 26.143034,28.137001 23.824688,25.402246 
	C20.380087,21.338951 11.312510,19.429642 6.697770,21.919666 
	C5.106675,22.778187 3.681946,23.930748 1.384817,23.992390 
	C1.000000,21.958334 1.000000,19.916666 1.000000,17.437500 
	C2.172628,15.544708 3.634916,14.538899 5.386852,13.842116 
	C14.857064,10.075603 28.286680,15.094935 32.960022,24.590233 
z"/>
<path fill="#182E58" opacity="1.000000" stroke="none" 
	d="
M67.555832,1.000000 
	C71.820374,10.665055 73.380264,20.706009 73.000305,31.534771 
	C73.115028,39.437336 73.986969,47.067333 67.345490,52.936401 
	C66.249580,47.948586 64.996666,42.851978 68.405830,38.189987 
	C68.594589,37.931870 68.809792,37.522503 68.733894,37.266037 
	C65.731422,27.120466 68.406273,15.935287 63.073254,6.232186 
	C62.205124,4.652676 61.086777,3.210687 60.042038,1.352568 
	C62.370556,1.000000 64.741112,1.000000 67.555832,1.000000 
z"/>
<path fill="#34435E" opacity="1.000000" stroke="none" 
	d="
M37.000275,11.613228 
	C36.143368,12.164807 35.285358,12.329426 34.213524,12.747931 
	C32.396870,14.206493 30.796606,13.542586 29.323957,12.828019 
	C22.189058,9.365982 14.658940,9.152556 6.990713,9.966928 
	C5.186211,10.158567 3.373930,10.581591 1.340440,9.258677 
	C0.999999,1.000000 0.999999,1.000000 8.827232,1.000000 
	C16.905716,1.000000 24.984200,1.000000 33.531342,1.000000 
	C35.224358,2.205945 36.220726,3.532696 36.151859,5.672489 
	C36.334251,7.742501 36.666710,9.484384 37.000275,11.613228 
z"/>
<path fill="#3B4965" opacity="1.000000" stroke="none" 
	d="
M1.000000,9.444164 
	C8.386287,8.336451 15.708777,7.192662 23.188116,8.851274 
	C26.870617,9.667902 29.762987,11.962474 33.637436,12.958725 
	C32.942879,17.560247 36.954182,21.100279 36.259426,25.766903 
	C35.450256,25.139921 34.588722,25.008619 33.335953,25.003704 
	C32.464653,24.623096 31.630171,24.357201 31.439943,23.849777 
	C28.988245,17.310028 23.349457,16.313057 17.435667,14.878979 
	C11.694050,13.486652 6.747942,14.499635 1.371903,16.954676 
	C1.000000,14.629442 1.000000,12.258885 1.000000,9.444164 
z"/>
<path fill="#293A5D" opacity="1.000000" stroke="none" 
	d="
M36.351719,6.042036 
	C35.328529,4.571522 33.792690,3.542416 34.004051,1.350615 
	C38.356899,1.000000 42.713799,1.000000 47.535347,1.000000 
	C49.635677,6.084626 51.271355,11.169252 52.952629,16.627544 
	C50.842083,17.451719 49.505581,15.637657 47.356514,15.044619 
	C45.556030,9.732990 40.547127,8.580070 36.351719,6.042036 
z"/>
<path fill="#0D1224" opacity="1.000000" stroke="none" 
	d="
M136.007111,66.153275 
	C136.946991,65.535828 137.954330,65.296127 139.481659,65.029892 
	C142.003189,66.216148 145.158417,65.212349 145.504379,69.560196 
	C145.703461,72.062439 149.098862,71.372826 150.846558,69.212921 
	C151.875702,67.941048 152.116745,65.058327 154.644547,66.585030 
	C157.279526,68.176460 155.143951,69.947540 154.243805,71.623253 
	C151.236984,77.220711 152.537231,80.339821 158.420547,81.416077 
	C160.563278,81.808052 160.195129,83.413254 159.851105,84.432579 
	C157.763550,90.617821 158.703339,97.305496 156.286926,103.727600 
	C155.778091,104.103455 155.541000,104.210434 154.969025,104.117821 
	C153.552841,102.485634 153.549591,100.790176 153.581223,99.135002 
	C153.808563,87.241974 148.597214,78.012657 139.683014,70.578751 
	C138.278595,69.407555 136.770401,68.332375 136.007111,66.153275 
z"/>
<path fill="#0D1224" opacity="1.000000" stroke="none" 
	d="
M157.813629,139.743454 
	C157.909836,140.893021 157.652390,141.666702 156.326828,141.952209 
	C155.833176,142.137268 155.654800,142.273361 155.160095,142.292053 
	C154.556763,141.815643 154.372437,141.408493 154.247162,140.620255 
	C154.239716,139.359283 154.264877,138.438538 154.085800,137.153625 
	C154.040253,136.260208 154.072220,135.739578 154.205017,134.805939 
	C154.894836,127.257965 154.366180,120.109726 154.560165,112.971596 
	C154.618225,110.834526 154.237686,108.629829 155.698242,106.312256 
	C158.725479,106.560028 157.868317,108.736160 157.985947,110.415314 
	C158.401443,116.346489 157.202789,122.339592 158.830536,128.615601 
	C159.502869,132.620117 157.985535,135.977753 157.813629,139.743454 
z"/>
<path fill="#030612" opacity="1.000000" stroke="none" 
	d="
M156.020477,105.665810 
	C155.898376,115.783699 155.768753,125.567818 155.376282,135.671600 
	C153.803665,135.009247 153.424088,133.556503 153.373352,132.070419 
	C153.093109,123.861977 153.005951,115.651031 153.426880,107.443909 
	C153.477570,106.455666 153.842529,105.521065 154.769409,104.345749 
	C155.144348,104.011742 155.579544,104.001213 155.797363,103.998840 
	C156.014450,104.441658 156.013718,104.886848 156.020477,105.665810 
z"/>
<path fill="#F9F9FA" opacity="1.000000" stroke="none" 
	d="
M155.066498,103.553352 
	C155.084717,114.362991 155.025085,124.714241 155.039429,135.528381 
	C155.056351,136.443665 154.999283,136.896057 155.026001,137.682739 
	C155.381302,138.426056 155.484161,138.876755 155.265869,139.673996 
	C154.972687,140.411957 154.856079,140.839081 154.772263,141.598114 
	C154.976944,142.757980 154.820038,143.549622 154.467834,144.623413 
	C154.023239,145.857635 153.838242,146.873886 153.075684,147.972672 
	C152.588043,148.731842 152.240051,149.221985 151.762177,149.989502 
	C151.368622,150.581375 151.121368,150.905258 150.658035,151.452911 
	C149.895554,152.302277 149.291138,152.875458 148.519531,153.731888 
	C146.448868,155.814240 144.627228,157.701797 141.911102,158.980774 
	C141.217865,159.305435 140.814926,159.475250 140.083344,159.691315 
	C139.761017,159.752518 140.018799,159.918304 139.896530,159.825409 
	C133.712540,165.305542 126.484810,168.070770 117.967468,168.568115 
	C116.569885,168.467484 115.542747,168.543564 114.244308,168.119827 
	C113.528427,167.772156 113.092529,167.692856 112.341812,167.733612 
	C111.428764,168.627701 110.584198,168.467590 109.394379,168.293793 
	C108.271309,168.083389 107.530327,168.026367 106.421326,167.910004 
	C100.464546,167.267548 94.801216,166.896011 90.390923,162.074860 
	C90.190735,161.748550 90.144470,161.857285 90.198761,161.833984 
	C89.910789,161.775909 89.616203,161.641357 89.189590,161.224121 
	C89.002586,161.056473 88.810318,160.798462 88.651604,160.824829 
	C81.671501,158.231842 76.585587,153.667007 73.003609,146.875885 
	C72.573921,146.090424 72.361275,145.620178 72.049393,144.758118 
	C71.559578,142.473663 71.391304,140.589783 72.828659,138.590790 
	C74.139885,137.496368 75.124138,136.650360 76.286278,135.526917 
	C76.774513,134.135651 77.892975,134.031067 78.991806,133.322815 
	C81.685417,132.468781 83.708481,133.311890 85.937378,134.777222 
	C86.977211,135.603668 87.605423,136.326294 88.442078,137.325531 
	C90.009438,139.598465 91.103416,141.792389 93.230408,143.595917 
	C93.661552,143.902359 93.826523,144.032333 94.221382,144.371811 
	C94.885124,145.002701 95.273056,145.470078 95.962379,146.048981 
	C96.493294,146.479721 96.801430,146.718994 97.364212,147.105606 
	C97.967133,147.448212 98.326004,147.625122 98.984535,147.902832 
	C100.090378,148.338623 100.866074,148.738724 101.948570,149.298813 
	C109.445152,152.304474 116.685310,152.663910 124.613808,149.546844 
	C125.450584,149.106857 125.659286,149.001602 126.181664,148.748474 
	C131.438248,145.800522 136.252045,142.881119 137.534714,136.347046 
	C136.869431,135.224762 139.476974,132.213623 135.535248,133.606354 
	C133.867386,134.579086 132.406906,135.222748 130.623093,135.997437 
	C128.733307,136.606277 127.186256,137.129333 125.497330,138.254486 
	C123.995361,139.063873 122.728577,139.196487 121.027740,139.028336 
	C117.232155,137.980408 113.746078,138.603043 109.902664,138.437454 
	C108.977051,138.445145 108.449852,138.444962 107.532150,138.425415 
	C104.057945,138.157654 101.133339,137.178955 97.784370,136.386383 
	C97.173775,136.266968 96.934654,136.202942 96.353462,136.004059 
	C92.811752,133.886932 89.548347,132.007919 86.126175,129.726074 
	C84.439064,127.754845 82.232407,126.695076 81.264763,124.122162 
	C81.143761,123.804832 81.084541,123.918793 81.139847,123.886162 
	C78.160141,122.983261 77.714211,119.768875 75.592667,117.609695 
	C74.908104,116.049835 74.653976,114.709946 74.226761,113.069519 
	C74.084129,112.761116 74.142952,112.350677 74.033554,112.174576 
	C72.007263,110.325325 71.994720,107.935150 71.730942,105.360596 
	C71.891014,104.247337 71.875023,103.479362 71.721024,102.350845 
	C70.014854,99.472099 70.554298,96.777390 70.958313,93.649353 
	C71.048477,92.305618 71.070251,91.402321 71.905777,90.299271 
	C72.228333,89.987953 72.605698,89.694977 72.625648,89.456940 
	C72.811264,83.267319 74.776009,78.202782 80.162018,74.718445 
	C80.499466,74.778145 80.719749,74.634056 80.762497,74.509583 
	C80.498405,74.125511 80.400009,73.870003 80.508957,73.618126 
	C80.616898,73.368568 80.722763,73.243553 81.143921,73.433685 
	C81.460152,73.623817 81.534904,73.534836 81.581703,73.500397 
	C83.422142,67.764549 88.869141,66.262009 93.176231,63.470463 
	C94.971954,62.306602 97.133842,61.839405 99.272232,60.536121 
	C100.440498,60.008057 101.351830,59.871418 102.589523,59.671806 
	C103.137123,59.587482 103.355400,59.553997 103.894424,59.439190 
	C104.429688,59.305252 104.644211,59.252640 105.187912,59.162544 
	C106.187950,59.129726 106.813675,59.333813 107.717224,59.725338 
	C112.027863,59.944958 116.055893,59.998280 120.543701,59.988365 
	C122.681343,60.437649 124.359207,60.950176 126.411850,61.533630 
	C128.691010,60.575462 130.006134,62.044395 131.569107,63.079720 
	C131.629456,63.441002 131.872681,63.057224 131.755219,63.247414 
	C132.337616,63.278069 132.968750,63.498039 133.626434,64.126663 
	C133.666092,64.462814 133.952194,64.207924 133.794800,64.317169 
	C134.454819,64.392990 135.243881,64.477402 135.957932,65.381027 
	C135.983047,65.783783 135.968216,65.743919 135.953949,65.759720 
	C141.307938,69.715454 146.255707,74.035942 149.818787,79.800537 
	C154.264877,86.993698 155.859680,94.754501 155.066498,103.553352 
z"/>
<path fill="#0B0E1B" opacity="1.000000" stroke="none" 
	d="
M73.516037,145.986023 
	C77.277077,152.124771 82.618034,156.269073 88.310143,160.548141 
	C82.988907,161.069809 77.957848,160.353699 75.303848,154.168060 
	C73.234848,153.028473 72.880791,151.202438 72.204994,149.140259 
	C72.035820,147.674866 72.173180,146.671097 73.516037,145.986023 
z"/>
<path fill="#0B0E1B" opacity="1.000000" stroke="none" 
	d="
M90.137047,162.187241 
	C95.159271,164.143600 100.274788,166.117645 105.883102,167.509171 
	C106.042801,168.043274 106.032295,168.235870 106.012314,168.717728 
	C102.985626,167.303116 99.651352,168.466614 96.611588,168.494247 
	C90.006798,168.554306 90.011284,169.047577 90.137047,162.187241 
z"/>
<path fill="#0A132A" opacity="1.000000" stroke="none" 
	d="
M72.768738,148.740692 
	C74.295609,150.142654 74.282570,151.869202 74.958145,153.655273 
	C72.171913,155.730011 71.071320,151.812790 68.346603,152.038162 
	C66.129051,149.014084 67.212715,146.354340 69.169922,143.464661 
	C70.522667,142.344315 71.322395,142.876465 72.210144,144.061951 
	C72.811363,145.741058 71.533867,147.159729 72.768738,148.740692 
z"/>
<path fill="#091128" opacity="1.000000" stroke="none" 
	d="
M70.322174,142.757874 
	C70.273453,145.960129 67.124557,148.083344 68.000084,151.595093 
	C67.833290,152.000000 67.666588,152.000000 67.249817,152.000000 
	C66.432549,149.891861 65.865341,147.783707 65.149124,145.338089 
	C66.165703,143.140259 67.331291,141.279907 68.747253,139.208557 
	C69.409088,138.620926 69.892418,138.463242 70.809296,138.689163 
	C72.029419,140.225494 71.584610,141.406128 70.322174,142.757874 
z"/>
<path fill="#0B0E1B" opacity="1.000000" stroke="none" 
	d="
M89.155891,161.261078 
	C89.342590,161.142746 89.682594,161.229004 90.137833,161.562988 
	C89.938438,161.695694 89.623817,161.580688 89.155891,161.261078 
z"/>
<path fill="#112437" opacity="1.000000" stroke="none" 
	d="
M150.790512,149.895752 
	C151.029434,149.078171 151.182343,148.587418 151.591110,148.020111 
	C152.607193,147.486786 153.400864,147.225983 154.645477,147.766266 
	C155.273743,150.123520 156.566574,149.379257 157.929611,149.245117 
	C170.289688,148.028702 182.222992,150.300476 193.983932,153.860718 
	C194.801590,154.108231 195.554291,154.396973 195.930695,155.646515 
	C188.745392,154.863708 181.622925,153.119934 174.458664,151.560852 
	C170.015335,150.593872 164.580475,148.820648 160.862488,154.026947 
	C160.010117,155.220520 158.774902,155.027451 157.776520,154.330841 
	C154.551239,152.080475 153.012405,154.204697 151.263000,156.802765 
	C150.199219,157.640564 149.401794,158.276245 148.292175,158.946899 
	C146.560883,157.220154 147.378113,155.302948 147.760025,153.106720 
	C148.318558,152.227478 148.710846,151.669113 149.341309,151.000854 
	C150.034363,150.802582 150.409378,150.579819 150.790512,149.895752 
z"/>
<path fill="#0E1A25" opacity="1.000000" stroke="none" 
	d="
M147.624481,152.934982 
	C148.502441,154.609818 148.383087,156.442001 147.985535,158.629623 
	C147.978806,159.150009 147.977615,159.318161 147.970215,159.738388 
	C146.904251,159.995941 145.844513,160.001419 144.386597,160.005478 
	C143.824310,159.869354 143.660187,159.734680 143.249435,159.801483 
	C142.551788,160.003143 142.100754,160.003342 141.311462,160.001221 
	C140.850464,159.815155 140.727722,159.631439 140.777222,159.164581 
	C143.073868,156.948990 145.198273,155.016556 147.624481,152.934982 
z"/>
<path fill="#172748" opacity="1.000000" stroke="none" 
	d="
M80.096741,74.568130 
	C77.284225,79.013657 74.314079,83.381706 72.822937,88.932190 
	C70.390366,88.178635 71.201614,86.599388 71.966911,85.091011 
	C73.323158,82.417900 74.004486,79.616432 73.893448,76.309036 
	C74.890022,75.503548 75.771423,75.002007 76.829254,74.253845 
	C77.901794,74.124184 78.797913,74.241150 80.096741,74.568130 
z"/>
<path fill="#182E58" opacity="1.000000" stroke="none" 
	d="
M58.300034,67.847504 
	C58.010643,62.271255 61.153786,58.900154 66.633598,57.006195 
	C66.716209,62.542351 62.184223,64.746902 58.300034,67.847504 
z"/>
<path fill="#091128" opacity="1.000000" stroke="none" 
	d="
M131.616241,63.072834 
	C130.195114,62.950153 128.760773,62.459301 127.056534,61.786507 
	C129.165543,58.585022 130.349213,60.798458 131.616241,63.072834 
z"/>
<path fill="#0D1224" opacity="1.000000" stroke="none" 
	d="
M135.861908,65.404114 
	C135.359879,65.497696 134.736694,65.211617 133.875473,64.675980 
	C134.453033,64.223045 135.202377,64.252777 135.861908,65.404114 
z"/>
<path fill="#091128" opacity="1.000000" stroke="none" 
	d="
M133.585541,64.128975 
	C133.119659,64.265450 132.573212,64.068085 131.832275,63.654160 
	C132.323105,63.228088 132.983124,63.150818 133.585541,64.128975 
z"/>
<path fill="#182533" opacity="1.000000" stroke="none" 
	d="
M117.813477,167.808868 
	C125.723274,166.726044 132.553879,163.737564 139.431046,159.825470 
	C137.577820,163.843201 137.608200,169.903717 130.403793,169.988770 
	C126.102982,168.324692 122.604279,171.195496 118.421822,170.990387 
	C118.010429,170.549927 118.009880,170.108994 118.009247,169.337280 
	C117.856987,168.735870 117.704811,168.465256 117.813477,167.808868 
z"/>
<path fill="#0B0E1B" opacity="1.000000" stroke="none" 
	d="
M117.658783,167.380676 
	C118.055237,167.686615 118.036163,167.950165 118.013123,168.610107 
	C116.792465,168.922302 115.510872,169.246246 114.187119,168.142807 
	C115.057297,167.680389 116.150269,167.509323 117.658783,167.380676 
z"/>
<path fill="#0B0E1B" opacity="1.000000" stroke="none" 
	d="
M109.226913,168.364502 
	C109.763893,168.016708 110.515480,167.892990 111.647026,167.811462 
	C111.410881,168.963104 110.540810,169.179031 109.226913,168.364502 
z"/>
<path fill="#172748" opacity="1.000000" stroke="none" 
	d="
M107.872040,59.656322 
	C107.270447,60.019306 106.541046,60.146976 105.451683,60.179138 
	C103.505302,59.825378 102.003410,60.288887 100.259537,60.867798 
	C93.842735,64.764702 87.055786,67.528198 81.897438,73.291008 
	C80.929108,69.574852 83.358704,67.665642 86.654251,66.038704 
	C89.613327,64.675301 89.096588,61.531796 90.858330,59.319656 
	C95.278107,61.336716 98.563240,58.057621 102.622162,57.008904 
	C104.101738,57.331985 105.203163,57.662598 106.655197,57.996529 
	C107.251938,58.473568 107.498085,58.947289 107.872040,59.656322 
z"/>
<path fill="#172748" opacity="1.000000" stroke="none" 
	d="
M81.206711,73.576431 
	C81.414078,73.862801 81.296600,74.059029 80.956474,74.298805 
	C80.854584,74.099754 80.903931,73.814400 81.206711,73.576431 
z"/>
<path fill="#080C1C" opacity="1.000000" stroke="none" 
	d="
M86.226059,135.875092 
	C84.096275,134.945374 82.156479,134.019958 79.478958,134.303055 
	C78.715599,134.157944 78.397781,133.919937 78.071274,133.295456 
	C77.996101,132.831161 77.995499,132.662598 77.995361,132.241165 
	C79.162476,130.939117 81.478142,131.344803 81.908554,128.826233 
	C82.579002,128.407944 83.037758,128.364426 83.852280,128.546570 
	C84.818596,129.133118 85.245972,129.757004 85.872536,130.713623 
	C86.726494,132.515518 87.227066,133.995941 86.226059,135.875092 
z"/>
<path fill="#0D1224" opacity="1.000000" stroke="none" 
	d="
M75.809608,116.841057 
	C77.743973,118.861504 79.345688,121.042633 81.071281,123.538643 
	C78.951263,124.374084 77.561790,123.260109 76.273071,121.212402 
	C75.823112,120.449745 75.649368,119.899666 75.239372,119.173698 
	C74.639839,118.208710 74.981735,117.587021 75.809608,116.841057 
z"/>
<path fill="#0D1224" opacity="1.000000" stroke="none" 
	d="
M84.285507,129.235077 
	C83.552299,129.007767 83.118324,129.011871 82.358871,129.017822 
	C81.859650,129.190231 81.685913,129.360825 81.264877,129.262665 
	C81.031364,127.551689 81.045151,126.109489 81.101349,124.236053 
	C82.819244,125.187462 84.494728,126.570091 86.393738,128.187454 
	C86.668854,128.677902 86.720428,128.933609 86.430008,129.371643 
	C85.578171,129.675522 85.077011,129.647400 84.285507,129.235077 
z"/>
<path fill="#0E1A25" opacity="1.000000" stroke="none" 
	d="
M70.264786,143.124603 
	C70.310928,141.895569 70.620171,140.790237 70.964012,139.340027 
	C70.619034,138.610565 70.472977,138.151688 70.780693,137.309540 
	C71.000916,137.000610 71.000000,137.000000 71.000183,137.000565 
	C71.385818,136.622040 71.845459,136.475418 72.688454,136.781799 
	C73.020462,137.226181 73.043243,137.449905 73.110825,138.008011 
	C73.162254,140.248718 73.168877,142.155060 73.244949,144.468536 
	C73.108749,145.036163 72.903091,145.196686 72.351799,145.173676 
	C71.513412,144.409546 71.020645,143.828934 70.264786,143.124603 
z"/>
<path fill="#0A132A" opacity="1.000000" stroke="none" 
	d="
M80.807236,129.245224 
	C81.186760,128.997040 81.355949,129.000183 81.779259,129.011505 
	C82.036163,131.293274 81.661957,133.146423 78.321808,132.021790 
	C77.957466,130.212631 79.549149,130.138489 80.807236,129.245224 
z"/>
<path fill="#0A132A" opacity="1.000000" stroke="none" 
	d="
M77.650276,133.007324 
	C78.287910,133.252396 78.579124,133.505081 78.989952,134.024445 
	C78.422363,134.597382 77.735161,134.903641 76.756058,135.229706 
	C74.513145,133.666321 75.619049,133.231873 77.650276,133.007324 
z"/>
<path fill="#0A132A" opacity="1.000000" stroke="none" 
	d="
M72.956802,136.710144 
	C72.553833,137.002045 72.110001,137.001648 71.333260,137.001190 
	C71.096489,136.355377 71.145668,135.581268 71.957695,135.535477 
	C72.259575,135.518478 72.595528,136.105988 72.956802,136.710144 
z"/>
<path fill="#0A132A" opacity="1.000000" stroke="none" 
	d="
M70.684067,137.047607 
	C71.000816,137.443878 71.000717,137.887146 70.999619,138.662766 
	C70.553978,138.996445 70.109344,138.997772 69.331161,138.998322 
	C69.088890,138.100342 69.350784,137.325943 70.684067,137.047607 
z"/>
<path fill="#0B1530" opacity="1.000000" stroke="none" 
	d="
M71.535538,92.790596 
	C71.768562,95.709396 71.729332,98.403290 71.636559,101.543739 
	C70.947617,101.990875 70.312218,101.991455 69.360512,101.992722 
	C69.037521,101.247360 69.030846,100.501312 69.025810,99.382095 
	C69.089554,97.521004 68.752228,95.988029 69.769272,94.291969 
	C70.011528,94.003418 70.013336,93.506393 70.009460,93.257919 
	C70.353348,92.658951 70.772591,92.511055 71.535538,92.790596 
z"/>
<path fill="#0B1530" opacity="1.000000" stroke="none" 
	d="
M71.636230,105.160446 
	C72.565872,107.098579 73.224731,109.181839 73.903870,111.631790 
	C73.497017,111.998848 73.069885,111.999222 72.322441,111.999191 
	C72.878693,109.664146 69.256432,107.757454 71.636230,105.160446 
z"/>
<path fill="#182533" opacity="1.000000" stroke="none" 
	d="
M143.249207,160.002899 
	C143.272720,159.896179 143.542618,159.789413 143.900482,159.843353 
	C143.988434,160.004044 143.495621,160.002838 143.249207,160.002899 
z"/>
<path fill="#182533" opacity="1.000000" stroke="none" 
	d="
M140.688232,158.931671 
	C140.957642,159.067612 140.965820,159.253769 140.973602,159.719421 
	C140.768112,159.973785 140.563004,159.948669 140.059448,159.838043 
	C139.983002,159.495636 140.204987,159.238770 140.688232,158.931671 
z"/>
<path fill="#102247" opacity="1.000000" stroke="none" 
	d="
M71.924805,92.648743 
	C71.407188,93.012283 71.006607,93.009071 70.305801,93.007645 
	C70.003952,92.258141 70.002319,91.506836 70.001808,90.380516 
	C70.496552,90.002762 70.990158,90.000031 71.856049,89.992630 
	C72.166161,90.752632 72.103996,91.517311 71.924805,92.648743 
z"/>
<path fill="#0E1A25" opacity="1.000000" stroke="none" 
	d="
M154.999908,147.629501 
	C154.212006,147.995987 153.423386,147.985870 152.240875,147.959656 
	C152.292404,147.035126 152.737839,146.126694 153.444244,145.058899 
	C153.933578,144.735596 154.161972,144.571625 154.693573,144.700775 
	C154.997589,145.746902 154.998398,146.499908 154.999908,147.629501 
z"/>
<path fill="#030612" opacity="1.000000" stroke="none" 
	d="
M155.124786,144.700775 
	C154.781616,144.976593 154.566467,144.959290 154.028259,144.920761 
	C153.917679,144.061707 154.130157,143.223877 154.573853,142.158020 
	C155.005844,141.946167 155.206619,141.962341 155.709473,141.989838 
	C155.758636,142.803314 155.505722,143.605469 155.124786,144.700775 
z"/>
<path fill="#102247" opacity="1.000000" stroke="none" 
	d="
M69.659996,94.073570 
	C69.859253,95.497147 69.706970,96.990883 69.291069,98.746765 
	C67.656044,97.302567 67.298882,95.654793 69.659996,94.073570 
z"/>
<path fill="#0B1530" opacity="1.000000" stroke="none" 
	d="
M76.115173,116.354385 
	C75.850342,117.255936 75.558434,117.831490 75.134827,118.702423 
	C74.835938,118.998497 74.668747,118.999199 74.250778,119.000084 
	C74.013885,117.218033 74.027763,115.435783 74.062881,113.207329 
	C74.752113,113.850204 75.420105,114.939293 76.115173,116.354385 
z"/>
<path fill="#030612" opacity="1.000000" stroke="none" 
	d="
M155.294189,139.835907 
	C155.045670,139.545380 155.002060,139.105957 155.034119,138.341766 
	C155.749588,138.454788 156.000198,138.983261 155.294189,139.835907 
z"/>
<path fill="#0B122B" opacity="1.000000" stroke="none" 
	d="
M138.731659,95.678162 
	C138.984665,96.747627 139.051483,97.506195 139.028534,98.637764 
	C138.280548,99.962234 138.400345,101.220901 137.481293,102.417244 
	C135.780121,104.630028 132.596558,105.437241 133.340454,109.048805 
	C133.631882,109.772202 133.639481,110.221275 133.418747,110.999466 
	C130.384659,113.028778 129.664902,117.366867 125.239677,117.554161 
	C121.711449,115.306114 118.843735,117.253792 116.153168,118.427284 
	C109.345222,121.396584 106.191162,120.453133 102.439186,113.471237 
	C101.592804,109.859764 103.602753,108.477570 106.269501,107.944466 
	C108.842697,107.430054 109.841751,106.211319 109.869125,103.547577 
	C109.912102,99.364326 112.048119,96.304733 115.878151,94.522552 
	C118.337700,93.378098 120.195015,91.508514 122.193871,89.734337 
	C124.984543,87.257324 126.907944,85.261551 123.373055,81.704826 
	C121.267616,79.586395 123.011681,78.176765 125.754120,77.829590 
	C127.642044,79.578018 130.285751,79.730911 131.716187,82.110168 
	C132.504135,82.654961 132.460861,83.355644 133.196655,83.594604 
	C133.457733,83.470055 133.413483,83.570580 133.465988,83.554482 
	C133.192154,83.957870 133.221024,84.330185 134.013702,84.685425 
	C134.361649,84.723564 134.187469,84.842995 134.250244,84.758080 
	C135.364731,88.379990 138.170609,91.392563 138.731659,95.678162 
z"/>
<path fill="#0D1833" opacity="1.000000" stroke="none" 
	d="
M125.873276,77.706169 
	C124.306267,78.887268 121.923370,79.511490 125.173012,81.813965 
	C128.981735,84.512550 128.165619,86.534843 124.662964,89.447334 
	C121.357674,92.195709 118.198090,94.890480 114.400070,97.007759 
	C111.675087,98.526855 110.401764,101.703789 111.227676,104.817589 
	C112.133774,108.233696 110.756004,108.968483 107.837067,109.032280 
	C105.642799,109.080238 103.386772,109.301315 103.003815,112.609863 
	C102.451828,113.909996 101.524696,114.264221 100.261383,114.754227 
	C99.180023,115.030083 98.443886,115.052536 97.341080,114.927452 
	C94.427704,114.306602 93.148506,112.104004 91.067627,110.358154 
	C90.752335,110.187660 90.898064,110.110680 90.846489,110.174957 
	C90.464874,108.932549 90.408035,107.527618 89.183060,106.222374 
	C88.932991,105.991882 88.746658,105.814552 88.805573,105.700226 
	C88.782845,105.098396 88.676605,104.616386 88.528397,103.774826 
	C88.520988,103.167625 88.526939,102.926369 88.626068,102.338158 
	C94.941879,99.100639 99.325226,93.894577 103.926468,89.167267 
	C106.934952,86.076370 110.758041,83.236885 111.739632,78.467476 
	C112.033913,77.037613 113.667953,77.514984 114.787727,76.748894 
	C114.710022,76.349228 114.511780,76.274231 114.373428,75.887009 
	C115.403191,75.810295 116.348320,75.399483 117.640488,75.306908 
	C120.675446,75.441399 123.269585,76.107506 125.873276,77.706169 
z"/>
<path fill="#0E1529" opacity="1.000000" stroke="none" 
	d="
M100.934464,150.241272 
	C99.969215,149.614807 99.478416,148.838364 98.237762,149.120026 
	C97.739395,148.692245 97.474098,148.472702 96.945938,148.190109 
	C96.407097,148.142487 96.165291,148.046814 95.921890,147.622528 
	C95.617447,146.531311 94.937103,146.053726 93.876770,145.814240 
	C93.594795,145.956970 93.197525,145.825592 93.120621,145.631042 
	C92.820717,142.755707 90.119370,141.423645 89.412399,138.598755 
	C89.796768,133.193893 90.003349,133.071213 95.821526,134.759705 
	C96.146912,134.946335 96.582802,134.967743 96.793831,135.023254 
	C100.007233,136.429001 102.799545,138.545639 106.707420,137.494995 
	C107.464096,137.351761 107.928635,137.371582 108.697586,137.568024 
	C112.750961,138.261093 116.517128,137.914246 120.651016,137.946808 
	C122.160507,137.773148 123.294258,137.622025 124.682800,137.237701 
	C126.315247,136.113510 128.198151,136.791290 129.727478,135.323517 
	C131.347092,134.382828 132.701340,133.665939 134.383057,132.916229 
	C137.052490,132.066254 137.701202,133.866837 138.742279,135.677948 
	C139.348038,140.779434 135.790253,143.322586 132.972382,146.174316 
	C131.479904,147.684723 129.481323,148.695053 127.352783,149.960968 
	C126.994347,149.990814 126.655701,149.626831 126.655701,149.626831 
	C126.655701,149.626831 126.226456,149.877502 126.280800,150.120239 
	C126.335144,150.362976 126.134750,150.017242 126.229462,150.189758 
	C122.090431,150.176987 118.111862,151.783020 113.790192,151.849838 
	C109.429306,151.917267 105.427139,151.152802 100.934464,150.241272 
z"/>
<path fill="#111D3D" opacity="1.000000" stroke="none" 
	d="
M114.832214,76.492065 
	C112.769081,81.218536 109.484634,85.178925 106.030426,89.073807 
	C103.947609,91.422348 101.965500,93.769981 99.267380,95.467598 
	C97.219414,96.756142 95.133987,97.964493 94.497215,100.759506 
	C93.848007,103.609123 91.698318,102.851952 89.414139,102.028923 
	C87.886086,99.660736 88.826012,97.170280 88.308144,94.410019 
	C90.486526,83.626602 97.496391,77.945129 107.669098,75.115265 
	C109.489868,75.842873 111.042671,75.341049 112.885849,75.412308 
	C113.239456,75.274712 113.331131,75.442253 113.267090,75.513092 
	C113.213371,76.159340 113.482048,76.562332 114.401291,76.776482 
	C114.792999,76.760361 114.756180,76.559906 114.832214,76.492065 
z"/>
<path fill="#101429" opacity="1.000000" stroke="none" 
	d="
M99.902878,114.317490 
	C100.545753,113.133453 101.406197,113.006126 102.654007,112.997856 
	C105.534760,114.112411 105.019470,118.188011 108.710930,118.498291 
	C111.057671,118.695534 112.754181,118.729004 115.051003,117.457855 
	C117.847290,115.910286 121.234100,112.906113 124.954689,116.644363 
	C124.380836,118.918304 122.426422,119.579384 121.189133,121.305099 
	C120.613365,121.794678 120.082184,121.941414 119.272781,122.041245 
	C115.262871,121.896721 111.522072,122.236221 107.402969,121.820976 
	C106.437599,121.797943 105.867516,121.715034 105.109573,121.407486 
	C104.148468,119.603874 102.438919,119.875237 100.857895,119.234062 
	C100.074905,119.014984 99.600517,118.844536 99.024803,118.439056 
	C97.804138,116.665710 98.925667,115.683304 99.902878,114.317490 
z"/>
<path fill="#0B0E1B" opacity="1.000000" stroke="none" 
	d="
M100.794601,150.455490 
	C108.156151,151.083923 115.715271,151.254501 123.228767,149.390701 
	C123.911369,149.221359 124.791771,149.849365 125.952240,150.234695 
	C117.954552,154.348343 109.512383,153.890411 100.794601,150.455490 
z"/>
<path fill="#0D1224" opacity="1.000000" stroke="none" 
	d="
M96.020569,134.621765 
	C94.463463,136.353943 90.015182,131.746307 90.191223,137.799652 
	C89.584824,138.398331 89.086319,138.554718 88.151947,138.273132 
	C87.235237,137.613342 86.678474,137.149597 86.035782,136.421143 
	C85.664612,134.687546 85.379356,133.218643 85.049507,131.375122 
	C85.022606,130.406296 85.204185,129.872482 85.792809,129.208878 
	C85.995972,129.003952 86.302307,128.708466 86.459793,128.565338 
	C89.709595,130.380524 92.801910,132.338867 96.020569,134.621765 
z"/>
<path fill="#111423" opacity="1.000000" stroke="none" 
	d="
M121.523407,121.576050 
	C120.909386,119.254684 122.117271,117.850433 124.632500,117.040848 
	C129.109467,117.103683 128.392792,111.283699 132.606171,111.042725 
	C133.377411,111.529198 133.502289,112.121788 133.271881,113.247421 
	C130.507904,117.864944 126.457817,120.051590 121.523407,121.576050 
z"/>
<path fill="#111423" opacity="1.000000" stroke="none" 
	d="
M120.773026,137.582764 
	C117.210831,139.815155 113.300301,139.182678 109.192337,138.052765 
	C112.841103,137.576859 116.680199,137.409058 120.773026,137.582764 
z"/>
<path fill="#182533" opacity="1.000000" stroke="none" 
	d="
M107.387497,122.016418 
	C110.746948,120.322739 114.567665,120.969673 118.688591,121.727493 
	C115.266022,123.035515 111.518677,122.737396 107.387497,122.016418 
z"/>
<path fill="#111423" opacity="1.000000" stroke="none" 
	d="
M106.622551,137.198929 
	C102.963448,141.559097 100.349327,137.496857 97.177727,135.377747 
	C100.085083,135.741165 103.165314,136.403549 106.622551,137.198929 
z"/>
<path fill="#0B0E1B" opacity="1.000000" stroke="none" 
	d="
M138.974670,95.597733 
	C137.243362,92.516190 134.520905,89.517708 134.231201,85.064095 
	C137.391327,87.509842 138.388702,91.278709 138.974670,95.597733 
z"/>
<path fill="#080C1C" opacity="1.000000" stroke="none" 
	d="
M87.911308,138.402008 
	C88.284050,138.053848 88.776115,138.030609 89.637802,138.003693 
	C90.517830,140.605896 94.068451,141.664536 93.263161,145.132416 
	C90.569962,143.799728 89.361572,141.217545 87.911308,138.402008 
z"/>
<path fill="#0B0E1B" opacity="1.000000" stroke="none" 
	d="
M133.510132,113.517334 
	C133.144394,113.115021 133.079971,112.511162 132.987961,111.452736 
	C132.972855,110.554077 132.985336,110.109985 133.001221,109.332680 
	C132.495972,106.724205 133.035828,105.346512 136.042480,105.958511 
	C136.527328,106.251091 136.701065,106.399376 137.024567,106.855774 
	C137.167282,109.823448 135.160355,111.389771 133.510132,113.517334 
z"/>
<path fill="#0B122B" opacity="1.000000" stroke="none" 
	d="
M99.623604,113.995483 
	C104.101532,116.362564 97.733368,115.911758 98.984894,117.866707 
	C98.033798,117.682205 97.144119,117.160385 96.108704,116.361252 
	C95.546654,115.356407 95.848900,114.787041 96.681396,114.130707 
	C97.749115,113.997116 98.498924,113.997246 99.623604,113.995483 
z"/>
<path fill="#101429" opacity="1.000000" stroke="none" 
	d="
M96.779121,113.740860 
	C96.729164,114.513344 96.459023,115.029701 96.075912,115.815002 
	C93.668388,114.925629 92.319275,112.857559 90.834839,110.513992 
	C93.579918,109.715660 94.141655,113.234123 96.779121,113.740860 
z"/>
<path fill="#0B0E1B" opacity="1.000000" stroke="none" 
	d="
M139.027313,135.587799 
	C137.733749,135.041687 136.528900,134.091858 135.017273,133.012726 
	C135.948502,131.949356 137.186508,131.015274 139.116013,129.559464 
	C139.116013,131.865524 139.116013,133.524796 139.027313,135.587799 
z"/>
<path fill="#0B0E1B" opacity="1.000000" stroke="none" 
	d="
M136.713501,102.367142 
	C137.469803,101.121620 137.961807,100.243904 138.696289,99.188477 
	C139.408676,101.722504 138.769104,104.279060 137.512024,106.980186 
	C137.174332,107.163902 137.055862,107.050133 136.996979,106.992889 
	C135.864349,105.641418 135.629059,104.249596 136.713501,102.367142 
z"/>
<path fill="#080C1C" opacity="1.000000" stroke="none" 
	d="
M88.038940,94.468796 
	C89.800797,96.232018 88.668625,98.774399 89.043358,101.554573 
	C89.044334,102.147072 89.032066,102.317574 89.010025,102.744293 
	C88.850449,103.174149 88.700645,103.347771 88.330162,103.257538 
	C87.554192,100.308899 87.587982,97.610565 88.038940,94.468796 
z"/>
<path fill="#091027" opacity="1.000000" stroke="none" 
	d="
M71.868553,145.301956 
	C72.224579,144.975220 72.442978,144.960297 72.987900,144.910507 
	C73.668732,144.956955 73.875656,145.176910 73.920486,145.773926 
	C73.099045,146.590698 73.004555,147.444397 73.007019,148.664581 
	C70.538986,148.637589 70.933800,147.201599 71.868553,145.301956 
z"/>
<path fill="#182533" opacity="1.000000" stroke="none" 
	d="
M100.755569,119.476913 
	C102.108437,119.243042 104.280899,117.281815 104.900665,120.841904 
	C103.359673,121.389145 102.265526,120.285469 100.755569,119.476913 
z"/>
<path fill="#0B0E1B" opacity="1.000000" stroke="none" 
	d="
M129.634369,135.102005 
	C129.473190,137.764771 127.338402,136.792618 125.331360,136.999664 
	C125.904724,135.277542 128.008514,136.145691 129.634369,135.102005 
z"/>
<path fill="#0D1A39" opacity="1.000000" stroke="none" 
	d="
M100.447830,61.093632 
	C101.269730,59.681858 102.600266,58.529938 104.877129,59.821854 
	C105.091713,60.083633 105.073509,60.046509 105.084229,60.060249 
	C104.932747,60.177898 104.770546,60.281811 104.326942,60.451363 
	C102.984680,60.702866 101.923805,60.888725 100.447830,61.093632 
z"/>
<path fill="#101429" opacity="1.000000" stroke="none" 
	d="
M88.916138,106.337463 
	C91.142784,106.261635 91.022285,107.858482 90.849724,109.846497 
	C90.163040,109.053833 89.531158,107.868446 88.916138,106.337463 
z"/>
<path fill="#030612" opacity="1.000000" stroke="none" 
	d="
M112.949196,75.041168 
	C111.769943,76.238144 110.212982,76.162636 108.331833,75.407028 
	C109.581841,75.036255 111.120392,74.921936 112.949196,75.041168 
z"/>
<path fill="#080C1C" opacity="1.000000" stroke="none" 
	d="
M93.745468,146.197083 
	C94.636024,145.251312 95.452881,145.256256 95.847412,147.044800 
	C95.210304,147.097504 94.553230,146.767349 93.745468,146.197083 
z"/>
<path fill="#030612" opacity="1.000000" stroke="none" 
	d="
M117.560631,75.044067 
	C117.202728,76.019142 116.189224,76.053993 114.789085,75.779633 
	C115.036217,74.066055 116.253860,75.185562 117.560631,75.044067 
z"/>
<path fill="#101429" opacity="1.000000" stroke="none" 
	d="
M88.055267,103.350601 
	C88.109474,102.993683 88.554832,103.001114 88.777542,103.000816 
	C88.976036,103.574394 88.951813,104.148262 88.896042,105.154022 
	C88.576683,104.959770 88.288872,104.333649 88.055267,103.350601 
z"/>
<path fill="#0B0E1B" opacity="1.000000" stroke="none" 
	d="
M133.327728,83.257614 
	C132.851532,83.616455 132.384903,83.465553 132.074860,82.575882 
	C132.408035,82.549713 132.802887,82.797447 133.327728,83.257614 
z"/>
<path fill="#030612" opacity="1.000000" stroke="none" 
	d="
M114.761230,76.333328 
	C114.349129,76.599136 113.905251,76.437912 113.332214,75.930313 
	C113.711861,75.691383 114.220657,75.798836 114.761230,76.333328 
z"/>
<path fill="#172748" opacity="1.000000" stroke="none" 
	d="
M104.233589,60.469669 
	C104.174377,60.245766 104.386826,60.085026 104.888924,60.054386 
	C104.920158,60.286053 104.695717,60.402172 104.233589,60.469669 
z"/>
<path fill="#0B0E1B" opacity="1.000000" stroke="none" 
	d="
M134.289154,84.483109 
	C134.066208,84.519005 133.770752,84.314445 133.496902,83.824135 
	C133.751221,83.773140 133.983932,84.007904 134.289154,84.483109 
z"/>
<path fill="#0E1A25" opacity="1.000000" stroke="none" 
	d="
M150.581512,149.698547 
	C150.646255,149.927765 150.415970,150.286591 149.882599,150.768204 
	C149.815170,150.536697 150.050842,150.182434 150.581512,149.698547 
z"/>
<path fill="#0B0E1B" opacity="1.000000" stroke="none" 
	d="
M126.535271,150.332504 
	C126.370834,150.074814 126.070435,149.565292 126.879501,149.850861 
	C126.994347,149.990814 126.735397,150.302032 126.535271,150.332504 
z"/>
<path fill="#080C1C" opacity="1.000000" stroke="none" 
	d="
M96.821030,148.365082 
	C97.024246,148.239517 97.346680,148.374619 97.827530,148.722076 
	C97.637390,148.831543 97.288811,148.728653 96.821030,148.365082 
z"/>
<path fill="#0A132A" opacity="1.000000" stroke="none" 
	d="
M85.661133,129.003174 
	C85.823181,129.553009 85.650398,130.102051 85.241257,130.825806 
	C84.684753,130.531769 84.364609,130.063034 84.015366,129.298981 
	C84.432945,129.003235 84.879623,129.002823 85.661133,129.003174 
z"/>
<path fill="#111423" opacity="1.000000" stroke="none" 
	d="
M136.633209,102.044815 
	C136.975357,103.371056 136.972916,104.742767 136.954300,106.525070 
	C135.476379,106.966415 133.213623,105.372124 133.189056,108.846085 
	C132.345642,108.669586 130.271957,109.826492 131.511948,107.505142 
	C132.684845,105.309410 133.933212,103.223419 136.633209,102.044815 
z"/>
</svg>