<svg version="1.1" id="Layer_1" xmlns="http://www.w3.org/2000/svg" xmlns:xlink="http://www.w3.org/1999/xlink" x="0px" y="0px"
	 width="100%" viewBox="0 0 512 512" enable-background="new 0 0 512 512" xml:space="preserve">
<path fill="#F44336" opacity="1.000000" stroke="none" 
	d="
M1.363737,241.346893 
	C1.000000,164.312439 1.000000,87.624878 1.000000,10.468657 
	C2.291443,5.118138 4.761688,1.531053 10.704542,1.216850 
	C87.354225,1.000000 163.708450,1.000000 240.531342,1.000000 
	C242.539612,2.247015 243.087967,3.911439 243.167145,5.837621 
	C243.256088,8.001999 243.289413,10.165512 243.289581,12.330181 
	C243.295044,84.773361 243.299423,157.216553 243.287125,229.659729 
	C243.284821,243.259644 243.259750,243.284912 229.665802,243.287079 
	C157.056091,243.298737 84.446350,243.310745 11.836691,243.243958 
	C8.440134,243.240845 4.793836,244.146851 1.363737,241.346893 
z"/>
<path fill="#2196F3" opacity="1.000000" stroke="none" 
	d="
M241.346985,512.636169 
	C164.645767,513.000000 88.291542,513.000000 11.468657,513.000000 
	C6.243373,511.980743 1.963378,510.419159 1.216444,504.295715 
	C1.000000,427.312439 1.000000,350.624878 1.000000,273.468658 
	C2.247022,271.460388 3.911425,270.911987 5.837620,270.832855 
	C8.001996,270.743958 10.165507,270.710571 12.330176,270.710419 
	C84.773315,270.705017 157.216446,270.700623 229.659592,270.712860 
	C243.259644,270.715149 243.284912,270.740204 243.287094,284.334076 
	C243.298767,356.943756 243.310745,429.553406 243.243958,502.163055 
	C243.240845,505.559601 244.146744,509.205872 241.346985,512.636169 
z"/>
<path fill="#4CAF50" opacity="1.000000" stroke="none" 
	d="
M272.653076,1.363765 
	C349.354218,1.000000 425.708466,1.000000 502.531342,1.000000 
	C508.275696,2.007418 512.447937,4.137914 512.781921,10.698421 
	C513.000000,87.354225 513.000000,163.708450 513.000000,240.531342 
	C511.752991,242.539642 510.088562,243.087952 508.162384,243.167130 
	C505.997986,243.256073 503.834503,243.289413 501.669830,243.289581 
	C429.226685,243.295029 356.783539,243.299408 284.340393,243.287140 
	C270.740265,243.284836 270.715027,243.259766 270.712860,229.665939 
	C270.701324,157.056259 270.689270,84.446564 270.756073,11.836937 
	C270.759186,8.440320 269.853180,4.793987 272.653076,1.363765 
z"/>
<path fill="#FFC107" opacity="1.000000" stroke="none" 
	d="
M512.636169,272.653015 
	C513.000000,349.354218 513.000000,425.708466 513.000000,502.531342 
	C511.992523,508.275635 509.862122,512.447998 503.301575,512.781921 
	C426.645782,513.000000 350.291534,513.000000 273.468658,513.000000 
	C271.460297,511.753021 270.912048,510.088562 270.832916,508.162384 
	C270.743958,505.997986 270.710571,503.834503 270.710419,501.669830 
	C270.705048,429.226685 270.700653,356.783539 270.712860,284.340393 
	C270.715149,270.740295 270.740173,270.715088 284.334076,270.712891 
	C356.943756,270.701263 429.553467,270.689301 502.163116,270.756012 
	C505.559662,270.759155 509.205902,269.853241 512.636169,272.653015 
z"/>
<path fill="#FFFFFF" opacity="1.000000" stroke="none" 
	d="
M513.000000,272.531342 
	C434.852234,273.000000 356.704346,273.043915 278.556885,272.889374 
	C273.936676,272.880249 272.890442,274.130402 272.898560,278.619293 
	C273.039337,356.433563 273.000000,434.248169 273.000000,512.531372 
	C262.645782,513.000000 252.291550,513.000000 241.468658,513.000000 
	C241.000000,434.854919 240.956238,356.709778 241.110168,278.565002 
	C241.119263,273.942841 239.863937,272.890839 235.372498,272.898956 
	C157.560974,273.039246 79.749100,273.000000 1.468657,273.000000 
	C1.000000,262.645782 1.000000,252.291550 1.000000,241.468658 
	C79.152710,241.000000 157.305511,240.955826 235.457901,241.111420 
	C240.074661,241.120605 241.110184,239.878952 241.102036,235.395340 
	C240.960464,157.576202 241.000000,79.756714 241.000000,1.468657 
	C251.354233,1.000000 261.708466,1.000000 272.531342,1.000000 
	C273.000000,79.149643 273.044006,157.299377 272.889069,235.448715 
	C272.879913,240.067642 274.126740,241.109818 278.613708,241.101685 
	C356.429840,240.960587 434.246307,241.000000 512.531372,241.000000 
	C513.000000,251.354233 513.000000,261.708466 513.000000,272.531342 
z"/>
<path fill="#FFFFFF" opacity="1.000000" stroke="none" 
	d="
M513.000000,10.513435 
	C510.378479,7.225949 508.090179,3.103817 503.120178,1.328810 
	C503.325256,1.000000 503.650482,1.000000 503.975739,1.000000 
	C513.000000,1.000000 513.000000,1.000000 513.000000,10.513435 
z"/>
<path fill="#FFFFFF" opacity="1.000000" stroke="none" 
	d="
M503.486572,513.000000 
	C506.795044,510.399567 510.876678,508.073669 512.672485,503.122192 
	C513.000000,503.325256 513.000000,503.650482 513.000000,503.975739 
	C513.000000,513.000000 513.000000,513.000000 503.486572,513.000000 
z"/>
<path fill="#FFFFFF" opacity="1.000000" stroke="none" 
	d="
M10.513435,1.000000 
	C7.269973,3.280307 3.854963,5.894468 1.332841,9.903826 
	C0.999999,1.000000 0.999999,1.000000 10.513435,1.000000 
z"/>
<path fill="#FFFFFF" opacity="1.000000" stroke="none" 
	d="
M1.000000,504.491058 
	C4.128264,506.925201 6.151867,511.140472 10.875086,512.674438 
	C10.350707,513.000000 9.701414,513.000000 9.052121,513.000000 
	C0.999996,513.000000 0.999996,513.000000 1.000000,504.491058 
z"/>
</svg>